<svg version="1.1" id="Camada_1" xmlns="http://www.w3.org/2000/svg" xmlns:xlink="http://www.w3.org/1999/xlink" x="0px" y="0px"
	 viewBox="0 0 512 512" style="enable-background:new 0 0 512 512;" xml:space="preserve">
<g>
	<path d="M69.1,240.7c2.7-4.4,7.2-3.7,11.7-3.7c0.5-3.3,0.9-6.5,1.4-9.8c-4.3-2-11.8-1.4-9.6-9c2-7,7.9-3.3,12.6-2.6
		c1.2-2.9,2.5-5.8,3.9-9c-1.6-1-3.3-1.9-4.8-3c-3.1-2-4-5.3-2.4-8.1c1.7-2.9,4.9-3.6,8.3-1.9c1.6,0.8,3.1,1.8,4.8,2.7
		c2-2.6,4-5.1,6-7.8c-2.6-3.9-9.6-7.2-3.6-12.8c5.3-4.9,8.4,1.4,12.2,4.2c2.6-2,5.1-4,7.7-5.9c-4-8.6-4.3-11.4-0.6-13.2
		c6.9-3.3,8.1,3.4,11.1,7.1c2.9-1.2,5.8-2.4,9-3.7c-0.5-2.1-1-4-1.3-6c-0.6-3.4,1.2-6.2,4.3-7c2.9-0.7,5.7,0.9,6.8,4
		c0.6,1.8,1.1,3.7,1.7,5.9c3.3-0.4,6.5-0.8,9.8-1.3c0.7-4.7-1.6-11.5,6-11.6c7.6,0,5.4,6.8,6.1,11.6c3.2,0.4,6.3,0.9,9.5,1.3
		c2.1-4.1,1.4-11.7,9-9.6c7.3,2,3.2,8.1,2.8,12.8c3,1.2,5.9,2.4,8.9,3.7c3.1-3.6,4.3-10.6,11.4-7c3.6,1.8,3.3,4.6-0.9,13
		c1.3,1,2.6,2,3.9,3c1.2,1,2.5,1.9,4.5,3.5c1.2-1.5,2.2-3.2,3.6-4.6c2.5-2.4,5.9-2.4,8.2-0.2c2.3,2.2,2.4,5.6,0.2,8.2
		c-2.2,2.5-4.5,4.5-5,8.4c-0.6,4.5-6.1,5.1-9.9,1.8c-4.7-4.1-9.2-8.3-14.4-11.7c-9.5-6.3-20.2-9.8-31.9-10.7c0,14.2,0,28.2,0,42.4
		c7.8,2,14.2,6.3,18.7,13.3c4.6-1,10.3-5.2,12.7,2c2.3,6.7-4.4,7.1-8.4,9.3c0.8,8.6-1.2,16.4-7,23.3c3.3,4.4,6.5,8.7,9.7,12.9
		c2.6,3.5,2.5,6.8-0.4,9c-2.9,2.3-6.3,1.5-9-2.1c-3.2-4.2-6.3-8.3-9.5-12.6c-7.7,3.3-15.3,3.9-23.2,1c-0.6-0.2-1.9,0.4-2.3,1
		c-7.8,11-15.5,22.1-23.4,33.3c10.1,6,20.9,9.2,32.3,9.8c13.4,0.7,26.1-2.2,37.9-8.6c5.2-2.8,7.6-2.1,10.7,3.1
		c1.6,2.7,3.2,5.4,4.7,8.2c1.6,3.1,0.7,6.3-2.1,7.9c-2.8,1.6-6,0.8-7.9-2.1c-1.1-1.6-2-3.3-3.1-5.1c-3.1,1.3-6,2.4-9.2,3.7
		c0.4,1.8,0.9,3.5,1.2,5.3c0.8,3.9-0.7,6.8-4.1,7.7c-3.2,0.8-5.9-1-7.1-4.6c-0.5-1.6-0.9-3.2-1.5-5.2c-3.2,0.4-6.4,0.8-9.8,1.2
		c-0.7,4.7,1.6,11.6-6,11.6c-7.6,0-5.5-6.8-6-11.6c-3.2-0.4-6.3-0.9-9.6-1.3c-2.2,4.1-1.4,11.7-9,9.6c-7.3-2-3.2-8.1-2.8-12.8
		c-3-1.2-5.9-2.4-8.8-3.7c-3.1,3.6-4.6,11-11.4,6.8c-6.2-3.9-0.9-8.5,0.9-12.8c-2.5-1.9-5-3.9-8.3-6.5c-1.1,1.4-2.1,3-3.5,4.4
		c-2.7,2.6-6.1,2.6-8.5,0.3c-2.4-2.3-2.4-5.8,0.2-8.5c1.2-1.3,2.7-2.5,4.2-3.8c-2.3-2.9-4.2-5.5-6.3-8.1c-4.4,1.7-9.1,7.2-13,0.6
		c-3.9-6.6,3.2-8.1,6.9-11.1c-1.2-2.9-2.4-5.8-3.7-9c-2,0.5-4,1-5.9,1.3c-3.5,0.6-6.2-1.1-7-4.2c-0.8-3,0.9-5.9,4.2-7
		c1.8-0.6,3.7-1.1,5.6-1.7c-0.4-3.3-0.9-6.4-1.3-9.8c-4.3-0.3-9,0.9-11.8-3.7C69.1,243.6,69.1,242.1,69.1,240.7z M94.4,227.1
		c-6.6,25.7,4.1,55.5,24.1,70.5c8.1-11.5,16.2-23,24.3-34.6c-5.4-6.2-8.2-13.2-8.1-21.4c0-0.8-1.3-2.1-2.3-2.5
		c-6.2-2.1-12.5-4-18.7-6C107.3,231.1,101,229.1,94.4,227.1z M158,171.8c-27.6,1.4-52.4,22.2-59.7,43.7c0.2,0.2,0.3,0.4,0.5,0.5
		c12.6,4,25.2,8.1,37.8,12c0.7,0.2,2.2-0.3,2.7-0.9c4.5-6.8,10.8-11,18.7-13C158,200,158,186.1,158,171.8z M181.5,242.7
		c-0.1-9.5-7.9-17.4-17.4-17.4c-9.7,0-17.6,7.9-17.6,17.6c0,9.6,8.1,17.5,17.8,17.4C173.8,260.2,181.6,252.2,181.5,242.7z"/>
	<path d="M442.9,393.3c-6.2,6.3-12.3,12.8-18.6,19c-2.6,2.5-5.6,2-8.7-1.1c-10.3-10.2-20.5-20.5-30.7-30.7
		c-9.4-9.4-18.8-18.8-28.1-28.1c-5.3-5.3-5.4-7.3-0.1-12.6c0.7-0.7,1.3-1.4,2-2.1c-3.5-3.4-7-6.8-10.5-10.2
		c-37.7,32.2-91.5,25.1-120.6-9.9c-28.4-34.1-25.8-84.2,6-114.9c31.8-30.7,81.5-32.1,114.5-3.3c33.8,29.5,40.2,81.6,9.1,118.9
		c3.4,3.4,6.9,6.7,10.5,10.3c0.6-0.6,1.6-1.5,2.7-2.5c3.4-3.3,6.4-3.3,9.8,0c9.8,9.8,19.6,19.6,29.4,29.4c10,10,20,20,29.9,30
		c1.3,1.3,2.3,2.8,3.5,4.2C442.9,390.8,442.9,392.1,442.9,393.3z M292.6,190.3c-40.2,0-73,32.6-73.1,72.8
		c-0.1,40.3,32.6,73.2,72.9,73.3c40.1,0,73-32.7,73.1-72.8C365.6,223.2,332.9,190.3,292.6,190.3z M367.7,345.4
		c17.9,18,35.7,35.7,53.1,53.2c2.4-2.2,5-4.6,7.3-6.6c-17.9-17.9-35.7-35.7-53.4-53.4C372.4,340.8,369.8,343.3,367.7,345.4z"/>
	<path d="M319.5,69.1c2.4,0.5,4.7,0.9,7.1,1.4c5.6,1.2,8.1,5.6,6.9,11.2c-0.5,2.3-0.5,5.2,0.5,7.2c2.6,4.8,9.3,4.4,12.3-0.4
		c4.3-7,8.7-7.8,15.2-3c7.4,5.5,13.8,11.9,19.1,19.5c3.7,5.3,2.5,10.3-3,13.5c-4.2,2.4-5.7,5.9-4.1,9.6c1.6,3.8,5.1,5.1,9.7,3.8
		c5.9-1.6,10.4,1.2,11.5,7.2c1.8,9.8,1.9,19.6,0,29.4c-1.2,6.1-5.7,8.8-11.5,7.1c-4.6-1.3-8.1,0.1-9.7,3.9c-1.6,3.8-0.2,7.3,4.1,9.6
		c3.5,1.9,5.3,4.7,5,8.6c-0.2,3.5-4.4,9.4-7.3,9.7c-1.8,0.2-4.2-0.4-5.6-1.5c-2.5-2-2-5-0.6-7.8c-7.2-6.3-10.3-13.9-6.5-23.1
		c3.8-9,11.3-12.2,21.1-11.7c0-6.4,0-12.6,0-19.1c-10.1,0.5-17.7-2.9-21.4-12.3c-3.5-9-0.3-16.4,7.6-23.3
		c-4.7-4.5-9.2-8.9-13.9-13.4c-6.9,7.8-14.5,10.9-23.7,7.1c-9-3.7-12.2-11.3-11.7-21.1c-6.4,0-12.6,0-19.1,0
		c0.5,10-2.8,17.5-12,21.2c-9,3.6-16.6,0.5-23.5-7.4c-4.6,4.6-9,9-13.7,13.6c7.9,6.9,11.1,14.4,7.4,23.5c-3.7,9.2-11.3,12.5-21.2,12
		c0,6.4,0,12.6,0,18.2c4.5,1.1,8.4,1.7,12.1,3c3.6,1.4,4.8,4.5,3.5,7.7c-1.3,3.2-4.3,4.1-8.3,2.9c-2.1-0.6-4.5-0.8-6.6-0.3
		c-6,1.4-10.4-1.2-11.6-7.2c-1.9-9.9-1.9-19.8,0.1-29.7c1.1-5.6,5.6-8.4,11.1-6.9c5.1,1.3,8.5,0.1,10.1-3.7c1.6-3.8,0.1-7.2-4.4-9.8
		c-5.1-3-6.3-8-2.8-13c5.6-8.1,12.4-14.9,20.5-20.6c5.4-3.8,10.4-2.7,13.7,3.2c1.6,3,4,4.6,7.4,4.4c3.2-0.3,5.5-2.1,6.3-5.3
		c0.4-1.5,0.1-3.4-0.3-4.9c-1.5-5.9,1.1-10.4,7.2-11.6c2.2-0.4,4.5-0.9,6.7-1.3C308.8,69.1,314.2,69.1,319.5,69.1z"/>
	<path d="M263.3,442.9c-3.5-1.9-4.4-5-3.9-8.6c0.5-3.6-0.6-5.5-4.5-5.3c-1.5,0.1-3.1-0.5-5-0.9c-0.8,2.1-1.6,4-2.3,6
		c-1.6,4-4.7,5.6-8,4.2c-3.1-1.3-4.2-4.4-2.9-8.3c0.6-1.8,1.3-3.6,2.1-5.7c-2.8-1.6-5.5-3.1-8.5-4.8c-1.4,1.6-2.7,3.3-4.2,4.9
		c-2.7,3-6,3.3-8.7,1c-2.6-2.2-2.7-5.4-0.4-8.5c1.3-1.6,2.6-3.2,4-4.9c-2.2-2.4-4.2-4.8-6.6-7.4c-1.7,0.9-3.3,1.9-5,2.8
		c-3.6,1.9-6.8,1.3-8.6-1.7c-1.8-3-0.7-6.3,2.9-8.5c1.4-0.9,2.9-1.7,4.5-2.7c-1.2-3.2-2.4-6.2-3.6-9.3c-4.7,0.1-11.1,3.5-12.5-3.9
		c-1.4-7.2,5.5-6.5,9.9-7.9c0-3.4,0-6.6,0-10.1c-4.5-1.4-11.4-0.8-9.9-8.2c1.4-6.5,7.1-4.2,11.6-3.5c1.2-3.4,2.3-6.6,3.3-9.7
		c-7.2-5.4-8.4-7.4-6.3-10.9c2.1-3.5,4.9-3.5,11.9,0.1c0.3-0.2,0.6-0.3,0.9-0.5c3.1-3.1,6-3.6,8.6-1.5c2.6,2.1,2.9,5.3,0.6,8.8
		c-6.3,9.2-9.3,19.4-9.1,30.6c0.6,26,21.7,47.9,47.9,49.5c26.4,1.6,50.1-17.5,53.6-43.4c0.6-4.8,0.5-9.7,0.4-14.5
		c-0.1-4.3,1.2-6.5,5.3-7.3c3.6-0.7,7.2-1.4,10.8-1.8c3.6-0.4,6.3,1.5,6.8,4.5c0.6,3.3-1.3,6-5,6.9c-1.9,0.5-3.8,0.7-5.9,1.1
		c0,3.2,0,6.4,0,10c1.7,0.3,3.5,0.6,5.4,1c3.9,0.8,6,3.5,5.5,6.9c-0.5,3.2-3.2,5.1-7.1,4.7c-2-0.2-4.1-0.6-6.3-1
		c-1.2,3-2.3,5.9-3.6,9.1c2,1.2,4,2.3,5.9,3.6c3,2,3.8,5,2.3,7.9c-1.6,2.9-4.9,3.8-8.2,2.2c-1.1-0.5-2.1-1.2-3.2-1.8
		c-0.9-0.5-1.9-1-3-1.6c-2,2.3-4,4.6-6.3,7.3c1.4,1.7,2.8,3.4,4.2,5.2c2.5,3.2,2.3,6.5-0.4,8.7c-2.7,2.2-6,1.7-8.7-1.3
		c-1.4-1.6-2.8-3.3-4.3-5.1c-2.8,1.6-5.5,3.1-8.4,4.7c0.8,2.4,1.7,4.8,2.4,7.2c1,3.3-0.5,6.4-3.5,7.4c-3.1,1-6-0.3-7.5-3.5
		c-0.5-1.1-0.8-2.3-1.3-3.4c-0.4-1.1-0.9-2.2-1.4-3.5c-2.6,0.4-5.2,0.7-7.6,1.3c-0.7,0.2-1.6,1.3-1.7,2.2c-0.3,1.5-0.1,3.2-0.1,4.7
		c0.1,3.2-1.6,5.2-4.1,6.7C265.7,442.9,264.5,442.9,263.3,442.9z"/>
	<path d="M311.6,171.3c-9.7,0.1-17.7-7.8-17.7-17.6c0-9.5,7.9-17.5,17.4-17.5c9.8,0,17.7,7.8,17.7,17.5
		C329,163.3,321.2,171.2,311.6,171.3z M311.5,148c-3.2,0-5.8,2.5-5.8,5.7c-0.1,3.1,2.5,5.8,5.6,5.9c3.2,0.1,6.1-2.7,6-5.9
		C317.3,150.5,314.7,148,311.5,148z"/>
	<path d="M275.9,258.8c12,2.2,24,2.1,36.3,0c-2.4-10.3-0.4-19.1,7.1-26.3c4.9-4.7,10.8-6.9,17.5-7.1c4-0.2,6.6,2.1,6.8,5.5
		c0.2,3.4-2.3,5.9-6.2,6.2c-11.3,0.9-16.7,9-13.4,19.9c1.9,6.3-1.3,11.8-7.9,13c-14.7,2.9-29.5,2.9-44.2,0c-7-1.3-10.1-6.8-7.9-13.6
		c2.8-8.9-1-16.4-9.7-18.8c-1.9-0.5-4.1-0.4-6,0c-4.2,0.8-7.3-0.6-8.2-4c-0.8-3.3,1.2-6.2,5.3-7.4c15.5-4.6,32,9,31.3,25.8
		C276.6,254.2,276.2,256.3,275.9,258.8z"/>
</g>
</svg>
