<svg version="1.1" id="Camada_1" xmlns="http://www.w3.org/2000/svg" xmlns:xlink="http://www.w3.org/1999/xlink" x="0px" y="0px"
	 viewBox="0 0 512 512" style="enable-background:new 0 0 512 512;" xml:space="preserve">
<g>
	<path d="M253.7,390c6.2,0,11.9,0,18.1,0c0.1-1.3,0.2-2.7,0.2-4c0-47.7,0-95.4,0-143.1c0-6.8,1.1-7.9,7.8-7.9c9.9,0,19.7,0,29.6,0
		c5.8,0,7.1,1.3,7.1,7.1c0,47.2,0,94.4,0,141.6c0,2,0,3.9,0,6.1c26.9,0,53.5,0,80.1,0c0.2-0.3,0.5-0.5,0.7-0.8
		c-0.7-0.4-1.7-0.7-2.3-1.3c-6.6-5.4-13.1-10.7-19.6-16.1c-3-2.5-3.6-5.7-1.8-8.2c1.9-2.4,5.3-2.4,8.4,0.1c11,9,22.1,18.1,33.1,27.1
		c4,3.3,4,7.3,0.1,10.5c-10.9,8.9-22,17.8-33,26.6c-3,2.4-5.9,2.3-7.9-0.2c-2.1-2.6-1.7-5.3,1.3-7.8c7.2-6,14.5-12,22.5-18.5
		c-2-0.1-3.1-0.2-4.3-0.2c-68.7,0-137.6,0-206.3,0c-22.8,0-45.7,0-68.5,0c-6.4,0-7.7-1.3-7.7-7.7c0-74.8,0-149.7,0-224.5
		c0-1.1,0-2.3,0-3.5c-0.4-0.3-0.7-0.6-1.1-0.9c-0.3,0.8-0.5,1.8-1.1,2.4c-5.4,6.6-10.7,13.1-16.1,19.6c-2.5,3.1-6,3.7-8.5,1.7
		c-2.2-1.9-2.2-5.1,0.3-8.2c8.9-11.1,17.9-22.3,26.8-33.3c3.3-4,6.5-4,9.8,0c9.2,11,18.3,22.2,27.4,33.3c2.4,2.9,2.1,6-0.5,7.9
		c-2.5,1.9-5.3,1.3-7.5-1.4c-6.1-7.3-12.1-14.7-18.6-22.6c0,75.8,0,150.7,0,225.9c9.1,0,18.1,0,27.5,0c0-1.3,0-2.6,0-3.8
		c0-24.1,0-48,0-72c0-5.9,1.5-7.3,7.4-7.3c8.7,0,17.4,0,26.1,0c6.8,0,7.9,1.2,7.9,8.2c0,23.6,0,47.4,0,71c0,1.2,0,2.5,0,4
		c5.9,0,11.6,0,17.5,0c0.1-1.2,0.2-2.5,0.2-3.7c0-34.4,0-68.6,0-103c0-6.6,1.2-7.8,7.9-7.8c10.2,0,20.4,0,30.7,0
		c5.1,0,6.6,1.5,6.6,6.7c0,34.4,0,68.6,0,103C253.7,386.6,253.7,388.3,253.7,390z M282.8,245.6c0,48.4,0,96.4,0,144.4
		c7.8,0,15.4,0,22.9,0c0-48.2,0-96.2,0-144.4C298,245.6,290.4,245.6,282.8,245.6z M219.8,286c0,34.9,0,69.5,0,104
		c8.1,0,15.8,0,23.6,0c0-34.8,0-69.4,0-104C235.5,286,227.8,286,219.8,286z M160,317.4c0,24.4,0,48.4,0,72.7c6.7,0,13.3,0,20,0
		c0-24.3,0-48.4,0-72.7C173.3,317.4,166.8,317.4,160,317.4z"/>
	<path d="M358.5,218.7c-3.6-4-7-7.7-10.3-11.4c-35.5,26.8-79.7,15.2-100.8-13.2c-21.5-28.8-18-68.1,8.5-92.8
		c26.2-24.6,67.4-25.2,95.3-1.5c25.7,21.8,36.1,66.8,5.1,100.8c3.5,3.6,7,7.3,10.8,11.3c2.7-2.5,5.3-5,7.9-7.3
		c3.3-3,6.1-2.9,9.1,0.3c13,14,26.1,28,39,42.1c8.6,9.4,8.2,23.5-0.5,31.7c-9.1,8.5-23.8,8.2-32.6-1c-13.4-14.1-26.5-28.5-39.7-42.8
		c-2.6-2.8-2.5-5.5,0.3-8.2C352.8,224,355.6,221.5,358.5,218.7z M244.1,158.5c3.1,21.4,13.1,37.6,32,47.3c22,11.3,43.7,9.6,63.6-5
		c15.3-11,22.8-26.7,24.1-45.9c-5.7,0-10.7,0-15.8,0c-6.3,0-6.6-0.2-8.9-6c-1.4-3.7-2.9-7.3-4.6-11.7c-1.5,3.9-2.8,6.9-4,9.9
		c-4.6,11.4-1.9,10.4-15.3,10.2c-3.1,0-5.1,0.9-6.7,3.6c-4.2,6.8-8.8,13.3-13.2,20c-1.4,2.2-3.6,3.4-5.9,2.5c-1.5-0.6-2.9-2.5-3.6-4
		c-1-2.2-1.3-4.6-2.1-7c-3.3-12.1-6.5-24.1-10-36.8c-3.4,6.7-6.6,12.7-9.6,18.8c-1.4,2.9-3.5,4.3-6.9,4.2
		C253,158.3,248.8,158.5,244.1,158.5z M363.5,143.9c-3.2-28.3-31-53.8-66.5-50c-33.1,3.5-52.7,32.5-52.2,53.6c2.3,0,4.6-0.2,6.9,0.1
		c2.8,0.3,4.1-0.8,5.3-3.3c4.1-8.5,8.5-16.7,12.7-25.2c1.3-2.7,3.3-4.2,6.3-4c3.1,0.2,4.2,2.4,4.9,5.1c1.5,6.1,3.2,12.1,4.9,18.2
		c2.4,8.8,4.7,17.5,7.3,26.9c2.3-3.4,4.5-6,6-9c3.8-7.7,9.3-11.8,18.2-9.8c2,0.4,2.8-0.6,3.5-2.4c3-7.6,6.1-15.3,9.1-22.9
		c0.9-2.4,2.3-4,5-4c2.9,0,4.3,1.5,5.3,4.1c2.6,6.8,5.4,13.5,8.2,20.3c0.4,0.9,1.3,2.2,2.1,2.2C354.7,144,359.1,143.9,363.5,143.9z
		 M360.6,231.8c12.3,13.1,24.2,25.9,36.1,38.7c5,5.4,13,5.7,18.1,0.9c5.2-4.9,5.2-11.8-0.1-17.5c-8.8-9.6-17.5-19.1-26.3-28.6
		c-3-3.3-6.1-6.6-9.4-10.1C372.7,220.8,366.8,226.1,360.6,231.8z"/>
</g>
</svg>
