<?xml version="1.0" encoding="utf-8"?>
<svg version="1.1" id="Camada_1" xmlns="http://www.w3.org/2000/svg" xmlns:xlink="http://www.w3.org/1999/xlink" x="0px" y="0px"
	 viewBox="0 0 512 512" style="enable-background:new 0 0 512 512;" xml:space="preserve">
<g>
	<g>
		<g>
			<path d="M405.3,436.8c-12,0-21.9-3.7-29.4-11c-7.6-7.4-11.5-16.8-11.5-28c0-11.2,3.9-20.6,11.5-28.1
				c7.6-7.4,17.5-11.2,29.4-11.2c12.1,0,22.1,3.7,29.6,11c7.6,7.4,11.5,16.9,11.5,28.2c0,11.2-3.9,20.6-11.5,28
				C427.4,433.1,417.4,436.8,405.3,436.8z M405.3,371.7c-8.6,0-15.2,2.4-20.3,7.4c-5.1,5-7.5,11.1-7.5,18.7c0,7.6,2.5,13.7,7.5,18.6
				c5.1,4.9,11.8,7.3,20.3,7.3c8.7,0,15.4-2.4,20.5-7.3c5.1-4.9,7.5-11,7.5-18.6c0-7.8-2.5-13.9-7.5-18.8
				C420.8,374.1,414,371.7,405.3,371.7z M419,338h-27.4c-10.2,0-18.5-8-18.8-18.3l-6.5-224.7c-0.1-5.1,1.7-10,5.3-13.7
				c3.6-3.7,8.4-5.7,13.5-5.7h40.5c5.1,0,9.9,2,13.5,5.7c3.6,3.7,5.5,8.5,5.3,13.7l-6.5,224.7C437.5,329.9,429.3,338,419,338z
				 M385.1,88.7c-1.6,0-3,0.6-4.1,1.7c-1.1,1.1-1.7,2.6-1.6,4.2l6.5,224.7c0.1,3.1,2.6,5.6,5.7,5.6H419c3.1,0,5.6-2.4,5.7-5.6
				l6.5-224.7c0-1.6-0.5-3-1.6-4.2c-1.1-1.1-2.5-1.7-4.1-1.7H385.1z"/>
		</g>
	</g>
	<g>
		<path d="M149.1,309.8c0-2.1,0-4.2,0-6.3c0-57.9-0.1-115.9-0.1-173.8c0-19.8,17-31.2,35.5-23.8
			c0.4,0.2,0.9,0.3,2.1,0.7c0-2.5-0.1-4.6,0-6.7c0.4-12.3,8.3-21.8,20-24.2c11.4-2.3,23,3.6,27.5,14.5c1.3,3.2,1.8,7,2,10.6
			c0.3,5,0.1,10,0.1,14.6c4.5-0.7,8.9-1.9,13.2-2c12.8-0.1,23.5,10.4,23.9,23.2c0.2,7.2,0,14.5,0,21.2c4.9-0.7,9.9-2.3,14.7-1.9
			c14.2,1.2,22.8,11,22.8,25.3c0,17.3-0.2,34.6-0.2,52c0,35.1,0,70.2,0,105.3c0,47.1-34.8,88.5-81.1,96.5
			c-47.4,8.2-91.7-16.4-110-61.1c-17.3-42.1-34.7-84.3-51.9-126.4c-4.4-10.8-1.1-22.9,7.9-29.6c9.2-6.8,21.9-6.9,30.5,0.6
			c3.2,2.8,5.9,6.7,7.6,10.7c11.3,25.7,22.2,51.5,33.3,77.3c0.5,1.2,1,2.3,1.5,3.4C148.6,309.9,148.8,309.8,149.1,309.8z
			 M161.6,235.1c0,0,0.1,0,0.1,0c0,35.5,0,70.9,0,106.4c0,4.3-1.6,6.8-4.8,7.5c-3.3,0.7-6.1-1-7.8-4.9c-8-18.8-16.1-37.6-24.1-56.4
			c-7.6-17.8-15.4-35.6-22.9-53.5c-2.1-4.8-5.2-8-10.5-8.5c-9.4-0.9-15.8,8.2-12.1,17.3c10.4,25.5,20.9,51,31.4,76.5
			c7.5,18.4,14.5,37,22.8,55c16,34.7,52.1,53.6,90.6,48.5c41.2-5.5,73.8-42.5,73.8-84c0-33.2,0-66.5,0-99.7c0-3.7,0.1-7.5,0.1-11.2
			c0-16,0.2-32.1,0-48.1c-0.1-6-3.6-10-9.2-11.3c-5.5-1.3-11.3,0.8-13.6,6c-1.4,2.9-1.9,6.5-1.9,9.8c-0.2,24.5-0.1,48.9-0.1,73.4
			c0,3,0.1,6.1,0,9.1c-0.1,3.6-2.8,6.2-6.3,6.2c-3.3,0-5.9-2.4-6.3-5.9c-0.1-0.9,0-1.9,0-2.8c0-37.6,0-75.1,0-112.7
			c0-4.9,0.2-9.8,0-14.7c-0.3-6.2-5.2-10.9-11.4-11.2c-6.3-0.3-11.7,3.9-12.6,10.2c-0.4,2.4-0.5,4.9-0.6,7.3
			c-0.1,40.7-0.1,81.5-0.1,122.2c0,4.7-2.5,7.7-6.3,7.7c-3.8,0-6.3-2.9-6.4-7.6c0-0.5,0-0.9,0-1.4c0-46.9,0.1-93.9,0.1-140.8
			c0-8.1,0.2-16.1,0-24.2c-0.1-5.1-2.9-8.6-7.5-10.5c-4.7-1.9-9.1-1.1-13,2.4c-3.2,3-3.8,6.8-3.8,10.9c0,53.6,0,107.2,0,160.8
			c0,1.2,0,2.3,0,3.5c-0.3,3.8-2.7,6.2-6.3,6.2c-3.6,0-5.9-2.3-6.3-6.2c-0.1-0.9,0-1.9,0-2.8c0-43.1,0-86.1-0.1-129.2
			c0-3.6-0.4-7.3-1.5-10.7c-1.6-5.3-7.9-8.5-13.2-7.5c-6.1,1.1-10.1,6-10.1,12.5C161.6,164.2,161.6,199.7,161.6,235.1z"/>
	</g>
</g>
</svg>
