<?xml version="1.0" encoding="utf-8"?>
<svg version="1.1" id="Camada_1" xmlns="http://www.w3.org/2000/svg" xmlns:xlink="http://www.w3.org/1999/xlink" x="0px" y="0px"
	 viewBox="0 0 512 512" style="enable-background:new 0 0 512 512;" xml:space="preserve">
<g>
	<path d="M437,205.7c-1-55.6-46-105.1-101.7-105.1c-32.2,0-60.6,16.8-79.2,41.6c-18.7-24.7-47.1-41.6-79.2-41.6
		C121.1,100.6,76,150.1,75,205.7h-0.2c0,0.3,0.1,0.7,0.1,1c0,0.2-0.1,0.5-0.1,0.8c0,1.6,0.4,2.7,0.5,4.2
		c5,141.6,179.3,199.7,179.3,199.7s176.8-58,182.1-199.4c0.1-1.6,0.5-2.8,0.5-4.5c0-0.3-0.1-0.5-0.1-0.8c0-0.4,0.1-0.7,0.1-1H437z
		 M414,211.1C410,319.8,285.9,375,254.6,387.2C223.6,375,101.8,320,97.9,210.7c0-1.1-0.2-2.2-0.3-3.3c0-0.4,0-0.8,0.1-1.3
		c0.8-44.9,37-82.8,79.1-82.8c23.2,0,45.5,11.9,61.2,32.6c4.3,5.7,11,9,18.1,9c7.1,0,13.8-3.3,18.1-9c15.6-20.7,37.9-32.6,61.2-32.6
		c42.1,0,78.3,37.9,79.1,82.8c0,0.4,0,0.9,0.1,1.3C414.2,208.5,414.1,209.7,414,211.1z"/>
</g>
</svg>
