<?xml version="1.0" encoding="utf-8"?>
<svg version="1.1" id="Camada_1" xmlns="http://www.w3.org/2000/svg" xmlns:xlink="http://www.w3.org/1999/xlink" x="0px" y="0px"
	 viewBox="0 0 512 512" style="enable-background:new 0 0 512 512;" xml:space="preserve">
<g>
	<path d="M130.9,340.3c22.7,0,43.6-13.4,53.2-33.8h5.2c3.3,0,6.1-2.7,6.1-6.1s-2.7-6.1-6.1-6.1H72.4
		c-3.3,0-6.1,2.7-6.1,6.1s2.7,6.1,6.1,6.1h5.2C87.3,326.8,108.1,340.3,130.9,340.3z M170.3,306.5c-8.5,13.2-23.4,21.7-39.4,21.7
		s-30.9-8.4-39.4-21.7H170.3z"/>
	<path d="M439.6,294.4H322.7c-3.3,0-6.1,2.7-6.1,6.1s2.7,6.1,6.1,6.1h5.2c9.6,20.4,30.5,33.8,53.2,33.8
		s43.6-13.4,53.2-33.8h5.2c3.3,0,6.1-2.7,6.1-6.1S442.9,294.4,439.6,294.4z M381.1,328.2c-16.1,0-30.9-8.4-39.4-21.7h78.9
		C412.1,319.7,397.2,328.2,381.1,328.2z"/>
	<path d="M407.3,431.4h-31c-2.9-17.5-18.1-30.9-36.5-30.9H336c-2.9-17.5-18.2-30.9-36.5-30.9h-37.4v-229h110.7
		L326.1,280c-1.1,3.2,0.7,6.6,3.8,7.7c3.2,1.1,6.6-0.7,7.7-3.8l43.5-130.2l43.5,130.2c0.8,2.5,3.2,4.1,5.7,4.1
		c0.6,0,1.3-0.1,1.9-0.3c3.2-1.1,4.9-4.5,3.8-7.7l-46.6-139.4h9.9c3.3,0,6.1-2.7,6.1-6.1s-2.7-6.1-6.1-6.1H262.1V93h29.6
		c9.5,0,17.2,7.7,17.2,17.2c0,3.3,2.7,6.1,6.1,6.1h18.3c3.3,0,6.1-2.7,6.1-6.1s-2.7-6.1-6.1-6.1h-12.9
		c-2.8-13.3-14.6-23.3-28.7-23.3h-29.6v-6.3c0-3.3-2.7-6.1-6.1-6.1c-3.3,0-6.1,2.7-6.1,6.1v6.3h-29.6c-14.1,0-25.9,10-28.7,23.3
		h-12.9c-3.3,0-6.1,2.7-6.1,6.1s2.7,6.1,6.1,6.1h18.3c3.3,0,6.1-2.7,6.1-6.1c0-9.5,7.7-17.2,17.2-17.2h29.6v35.4H112.5
		c-3.3,0-6.1,2.7-6.1,6.1s2.7,6.1,6.1,6.1h9.9L75.9,280c-1.1,3.2,0.7,6.6,3.8,7.7c3.2,1.1,6.6-0.7,7.7-3.8l43.5-130.2l43.5,130.2
		c0.8,2.5,3.2,4.1,5.7,4.1c0.6,0,1.3-0.1,1.9-0.3c3.2-1.1,4.9-4.5,3.8-7.7l-46.6-139.4h110.7v229h-37.4c-18.3,0-33.6,13.4-36.5,30.9
		h-3.9c-18.3,0-33.6,13.4-36.5,30.9h-31c-3.3,0-6.1,2.7-6.1,6.1c0,3.3,2.7,6.1,6.1,6.1h302.6c3.3,0,6.1-2.7,6.1-6.1
		C413.3,434.1,410.6,431.4,407.3,431.4z M172.2,412.5h9.4c3.3,0,6.1-2.7,6.1-6.1c0-13.7,11.2-24.9,24.9-24.9h87
		c13.7,0,24.9,11.2,24.9,24.9c0,3.3,2.7,6.1,6.1,6.1h9.4c11.6,0,21.4,8,24.1,18.8H148C150.7,420.6,160.5,412.5,172.2,412.5z"/>
	<path d="M306.2,400.4H205.8c-3.3,0-6.1,2.7-6.1,6.1c0,3.3,2.7,6.1,6.1,6.1h100.5c3.3,0,6.1-2.7,6.1-6.1
		C312.3,403.2,309.6,400.4,306.2,400.4z"/>
</g>
</svg>
