<?xml version="1.0" encoding="utf-8"?>
<svg version="1.1" id="Camada_1" xmlns="http://www.w3.org/2000/svg" xmlns:xlink="http://www.w3.org/1999/xlink" x="0px" y="0px"
	 viewBox="0 0 512 512" style="enable-background:new 0 0 512 512;" xml:space="preserve">
<g>
	<path d="M473.5,132.4c0-4.5,0-9,0-13.5c0-1.5,0-3,0-4.5c-0.1-4.5-0.2-9-0.3-13.5c-0.8-0.7-0.8-1.7-1-2.6
		c-1.8-2.9-4.1-5.2-6.9-7c-0.7-0.2-1.3-0.5-2-0.7c-5.9-2-10.9,1.2-16.1,3.1c-2.5,1.6-5.2,2.8-8.1,3.6c-7.9,4-16.1,7.6-24.3,10.9
		c-2.5,1.6-5.2,2.8-8.1,3.6c-7.9,4.1-16.1,7.6-24.3,10.9c-2.5,1.6-5.2,2.8-8.1,3.6c-3,1.5-6.2,2.8-9.1,4.5c-3.1,1.8-6,2-8.9-0.2
		c-0.9-0.5-1.8-1-2.7-1.5c-3.5-1-6.8-2.6-10-4.4c-1.5-0.2-2.8-0.8-3.9-1.8c-3.4-1-6.6-2.6-9.7-4.3c-0.9-0.3-2-0.4-2.6-1.3
		c-3.4-1-6.5-2.5-9.5-4.3c-0.8-0.2-1.7-0.2-2.1-1c-3.2-0.9-6.1-2.4-9-3.9c-0.9-0.4-1.9-0.9-2.8-1.3c-3-1.3-6-2.7-8.9-4
		c-1.4-0.2-2.6-0.7-3.6-1.7c-3.5-1-6.8-2.6-10-4.4c-1.5-0.2-2.8-0.8-3.9-1.7c-2.8-0.8-5.4-2-7.9-3.5c-1.2-0.4-2.3-0.8-3.5-1.2
		c-2.3,0.2-4.8-0.4-7,0.8c-2.4,1.2-4.5,0.9-6.6-0.6c-1.5-0.1-3-0.2-4.5-0.3c-7.8,1.7-14.4,6.2-21.8,8.9c-3,1.3-5.9,2.5-8.9,3.8
		c-7.9,4-16.1,7.7-24.3,11c-2.5,1.6-5.2,2.8-8.1,3.6c-7.9,4.2-16.2,7.7-24.4,11.1c-2.5,1.5-5.2,2.7-8,3.5c-4.7,0.5-8-2.8-11.9-4.4
		c-0.6-0.3-1.2-0.5-1.9-0.8c-3.5-1.6-6.9-3.2-10.4-4.7c-0.8-0.2-1.7-0.2-2.1-1c-3.2-0.9-6.1-2.3-8.9-3.9c-0.9-0.4-1.9-0.8-2.8-1.2
		c-3.3-1.4-6.5-2.9-9.8-4.3c-0.9-0.5-1.8-1-2.8-1.4c-3.5-1-6.8-2.6-10-4.4c-1-0.2-1.9-0.4-2.6-1.2c-3.5-1-6.8-2.6-9.9-4.4
		c-1.5-0.2-2.7-0.8-3.9-1.7c-3.4-1-6.6-2.6-9.7-4.3c-0.6-0.3-1.2-0.5-1.9-0.8c-3.3-1.1-6.3-3-9.8-3.3c-1.5,0.1-3,0.2-4.5,0.2
		c-5.2,2-8.8,5.5-10.7,10.7c-0.1,1.5-0.2,3-0.3,4.5c0,4.5,0,9,0,13.5c0,1.5,0,3,0,4.5c0,4.5,0,9,0,13.5c0,1.5,0,3,0,4.5
		c0,4.5,0,9,0,13.5c0,1.5,0,3,0,4.5c0,4.5,0,9,0,13.5c0,1.5,0,3,0,4.5c0,4.5,0,9,0,13.5c0,1.5,0,3,0,4.5c0,4.5,0,9,0,13.5
		c0,1.5,0,3,0,4.5c0,4.5,0,9,0,13.5c0,1.5,0,3,0,4.5c0,4.5,0,9,0,13.5c0,1.5,0,3,0,4.5c0,4.5,0,9,0,13.5c0,1.5,0,3,0,4.5
		c0,4.5,0,9,0,13.5c0,1.5,0,3,0,4.5c0,4.5,0,9,0,13.5c0,1.5,0,3,0,4.5c0,4.5,0,9,0,13.5c0,1.5,0,3,0,4.5c0,4.5,0,9,0,13.5
		c0,1.5,0,3,0,4.5c0,4.5,0,9,0,13.5c0,1.5,0,3,0,4.5c0.1,4.2,0.2,8.4,0.3,12.6c0.5,1.2,1,2.4,1.6,3.7c1.8,1.8,3.7,3.7,5.5,5.5
		c1.2,0.6,2.4,1.2,3.6,1.8c3,1.3,6,2.6,9,3.8c0.9,0.5,1.8,1,2.8,1.4c3.5,1,6.8,2.6,10,4.4c1,0.1,1.9,0.4,2.6,1.2
		c3.1,1.3,6.1,2.6,9.2,3.9c1.5,0.7,3,1.5,4.5,2.2c3.4,1,6.6,2.5,9.7,4.3c0.6,0.3,1.3,0.5,1.9,0.8c3.4,1.6,6.9,3.1,10.3,4.7
		c0.8,0.2,1.7,0.2,2.2,1c3.2,0.9,6.1,2.3,9,3.9c0.9,0.4,1.9,0.8,2.8,1.3c3.3,1.4,6.5,2.9,9.8,4.3c0.9,0.5,1.8,1,2.8,1.4
		c3.8,1.3,7.6,2.5,11.7,1.7c1.7-0.7,3.4-2.5,5.4-0.5c5.5,1.9,10.4,0,15.3-2c2.5-1.6,5.2-2.8,8.1-3.6c7.9-4.2,16.2-7.6,24.5-11.2
		c2.6-1.1,5.3-2.3,7.9-3.4c8.3-4.2,16.8-8,25.4-11.4c2.5-1.6,5.2-2.8,8.1-3.6c3-1.5,6.2-2.8,9.1-4.5c3.1-1.8,6-2,8.9,0.2
		c0.9,0.5,1.8,1,2.7,1.5c3.5,1,6.8,2.6,10,4.4c1.5,0.2,2.8,0.8,4,1.8c3.4,1,6.6,2.6,9.7,4.3c1,0.3,2,0.4,2.6,1.2
		c3.4,1,6.5,2.5,9.5,4.3c0.8,0.2,1.7,0.2,2.1,1c3.2,0.9,6.1,2.4,9,3.9c0.9,0.4,1.9,0.9,2.8,1.3c3,1.3,6,2.7,8.9,4
		c1.4,0.2,2.6,0.7,3.6,1.7c3.5,1,6.8,2.6,10,4.4c1.5,0.2,2.8,0.8,3.9,1.7c2.8,0.8,5.4,2,7.9,3.5c1.2,0.4,2.3,0.8,3.5,1.2
		c2.3-0.2,4.8,0.3,7-0.8c2.4-1.2,4.5-0.8,6.6,0.6c1.5,0.1,3,0.2,4.4,0.3c7.7-1.8,14.4-6.1,21.7-8.8c2.6-1.1,5.3-2.2,7.9-3.4
		c8.2-3.7,16.4-7.4,24.6-11.1c2.6-1.1,5.2-2.2,7.9-3.4c8.2-3.7,16.4-7.4,24.7-11.1c2.6-1.1,5.2-2.2,7.8-3.4c4.1-1.8,7.2-4.6,9.3-8.6
		c0.3-1.8,0.6-3.6,0.9-5.4c0-4.5,0-9,0-13.5c0-1.5,0-3,0-4.5c0-4.5,0-9,0-13.5c0-1.5,0-3,0-4.5c0-4.5,0-9,0-13.5c0-1.5,0-3,0-4.5
		c0-4.5,0-9,0-13.5c0-1.5,0-3,0-4.5c0-4.5,0-9,0-13.5c0-1.5,0-3,0-4.5c0-4.5,0-9,0-13.5c0-1.5,0-3,0-4.5c0-4.5,0-9,0-13.5
		c0-1.5,0-3,0-4.5c0-4.5,0-9,0-13.5c0-1.5,0-3,0-4.5c0-4.5,0-9,0-13.5c0-1.5,0-3,0-4.5c0-4.5,0-9,0-13.5c0-1.5,0-3,0-4.5
		c0-4.5,0-9,0-13.5c0-1.5,0-3,0-4.5c0-4.5,0-9,0-13.5c0-1.5,0-3,0-4.5c0-4.5,0-9,0-13.5C473.5,135.4,473.5,133.9,473.5,132.4z
		 M446.9,372.3c-4.4,1.9-8.8,3.7-13.1,5.6c-2.5,1.6-5.2,2.8-8.1,3.6c-7.9,4.1-16.1,7.6-24.4,11c-2.5,1.6-5.2,2.7-8.1,3.5
		c-7.8,3.6-15.6,7.2-23.4,10.8c-2.6,1.2-1.7-0.7-1.7-1.8c0-1.5,0-3,0-4.5c0-4.5,0-9,0-13.5c0-1.5,0-3,0-4.5c0-4.5,0-9,0-13.5
		c0-1.5,0-3,0-4.5c0-4.5,0-9,0-13.5c0-1.5,0-3,0-4.5c0-4.5,0-9,0-13.5c0-1.5,0-3,0-4.5c0-2.2-0.2-4.5-0.1-6.7
		c0.1-3.3-1.5-1.3-2.6-0.9c-3.3,2.6-6.9,4.7-10.8,6.1c-0.3,0.2-0.6,0.4-1,0.7c-0.1,1.5-0.1,3-0.2,4.5c0,4.5,0,9,0,13.5
		c0,1.5,0,3,0,4.5c0,4.5,0,9,0,13.5c0,1.5,0,3,0,4.5c0,4.5,0,9,0,13.5c0,1.5,0,3,0,4.5c0,4.5,0,9,0,13.5c0,2.5,0,5,0,7.6
		c-2-0.2-3.7-1.1-5.2-2.3c-3.5-1-6.8-2.6-9.9-4.5c-1.4-0.2-2.7-0.8-3.8-1.7c-3.4-1-6.6-2.5-9.6-4.3c-0.7-0.3-1.3-0.6-2-0.9
		c-3-1.3-5.9-2.7-8.9-4c-1.4-0.2-2.6-0.7-3.6-1.7c-3-1.3-6-2.6-9-3.9c-0.9-0.5-1.8-1-2.8-1.4c-3.5-1-6.8-2.6-10-4.4
		c-1-0.1-1.9-0.4-2.6-1.2c-3.1-1.3-6.1-2.7-9.2-4c-1.5-0.7-3-1.4-4.5-2.1c-3-1.6-7.4-1.2-8.7-5.5c0-1.5,0-3,0-4.5c0-4.5,0-9,0-13.5
		c0-1.5,0-3,0-4.5c0-4.5,0-9,0-13.5c0-1.5,0-3,0-4.5c0-4.5,0-9,0-13.5c0-1.5,0-3,0-4.5c-0.1-3.7,0.1-7.5-1.9-10.8
		c-0.8-0.5-1-1.3-1.1-2.2c-2.1-3.3-3.9-6.7-5.1-10.5c-1-1-1.6-2.2-1.8-3.6c-1.5-2.6-2.9-5.2-3.7-8.1c-1.5,0.5-0.6,1.9-1,2.7
		c0,4.5,0,9,0,13.5c0,1.5,0,3,0,4.5c0,4.5,0,9,0,13.5c0,1.5,0,3,0,4.5c0,4.5,0,9,0,13.5c0,1.5,0,3,0,4.5c0,4.5,0,9,0,13.5
		c0,1.5,0,3,0,4.5c0,4.5,0,9,0,13.5c1.1,5.2-0.3,8.8-5.9,10c-2.3,0.5-4.4,1.7-6.5,2.5c-7.9,4.1-16.1,7.7-24.4,11
		c-2.5,1.6-5.2,2.8-8.1,3.6c-7.9,4.3-16.3,7.6-24.5,11.2c-2.6,1.1-5.3,2.3-7.9,3.4c-4,2.2-8.1,4.1-12.6,5.7c0-3.4,0-6.5,0-9.6
		c0-1.5,0-3,0-4.5c0-4.5,0-9,0-13.5c0-1.5,0-3,0-4.5c0-4.5,0-9,0-13.5c0-1.5,0-3,0-4.5c0-4.5,0-9,0-13.5c0-1.5,0-3,0-4.5
		c0-4.5,0-9,0-13.5c0-1.5,0-3,0-4.5c0-4.5,0-9,0-13.5c0-1.5,0-3,0-4.5c0-4.5,0-9,0-13.5c0-1.5,0-3,0-4.5c0-4.5,0-9,0-13.5
		c0-1.5,0-3,0-4.5c0-4.5,0-9,0-13.5c0-1.5,0-3,0-4.5c0-4.5,0-9,0-13.5c-0.2-0.5-0.3-1.2-1.1-1.1c-0.2,0.4-0.4,0.8-0.6,1.2
		c-1.7,3.3-3.4,6.6-5.1,9.8c-1.5,2.9-2.8,5.9-4.5,8.6c-2.3,3.7-3.8,7.6-3.4,12.1c0,1.5,0,3,0,4.5c0,4.5,0,9,0,13.5c0,1.5,0,3,0,4.5
		c0,4.5,0,9,0,13.5c0,1.5,0,3,0,4.5c0,4.5,0,9,0,13.5c0,1.5,0,3,0,4.5c0,4.5,0,9,0,13.5c0,1.5,0,3,0,4.5c0,4.5,0,9,0,13.5
		c0,1.5,0,3,0,4.5c0,4.5,0,9,0,13.5c0,1.5,0,3,0,4.5c0,4.5,0,9,0,13.5c0,1.5,0,3,0,4.5c0,3.4,0,6.7,0,10.4c-2.7-0.5-4.9-1.7-7.1-3.1
		c-1.4-0.1-2.6-0.8-3.7-1.6c-3.1-0.9-6.1-2.3-8.9-3.9c-1.4-0.2-2.6-0.7-3.6-1.7c-3.2-0.8-6.1-2.4-9-3.8c-0.9-0.5-1.9-0.9-2.8-1.4
		c-3.6-1.1-7-2.6-10.2-4.5c-0.9-0.1-1.8-0.2-2.3-1.1c-3.5-1-6.8-2.6-10-4.4c-1.5-0.2-2.8-0.8-3.9-1.7c-2.8-0.7-5.4-2-7.9-3.4
		c-1.6-0.5-3.2-1-4.5-2.1c-3.4-1-6.5-2.5-9.6-4.2c-0.7-0.3-1.4-0.6-2.1-1c-5.8-2.3-5.6,0-5.2-10.2c0-1.5,0-3,0-4.5c0-4.5,0-9,0-13.5
		c0-1.5,0-3,0-4.5c0-4.5,0-9,0-13.5c0-1.5,0-3,0-4.5c0-4.5,0-9,0-13.5c0-1.5,0-3,0-4.5c0-4.5,0-9,0-13.5c0-1.5,0-3,0-4.5
		c0-4.5,0-9,0-13.5c0-1.5,0-3,0-4.5c0-4.5,0-9,0-13.5c0-1.5,0-3,0-4.5c0-4.5,0-9,0-13.5c0-1.5,0-3,0-4.5c0-4.5,0-9,0-13.5
		c0-1.5,0-3,0-4.5c0-4.5,0-9,0-13.5c0-1.5,0-3,0-4.5c0-4.5,0-9,0-13.5c0-1.5,0-3,0-4.5c0-4.5,0-9,0-13.5c0-1.5,0-3,0-4.5
		c0-4.5,0-9,0-13.5c0-1.5,0-3,0-4.5c0-4.5,0-9,0-13.5c0-1.5,0-3,0-4.5c0-4.9,0-9.8,0-15.3c3.9,1.8,7.4,3.5,10.8,5.1
		c1,0.2,1.9,0.4,2.6,1.2c3.5,1,6.8,2.6,10,4.4c1.5,0.2,2.7,0.8,3.9,1.7c3.4,1,6.6,2.6,9.7,4.3c0.6,0.3,1.2,0.5,1.9,0.8
		c3.5,1.6,6.9,3.2,10.4,4.7c0.8,0.2,1.7,0.2,2.1,1c3.2,0.9,6.1,2.3,8.9,3.9c0.9,0.4,1.9,0.8,2.8,1.2c3.3,1.4,6.5,2.9,9.8,4.3
		c0.9,0.5,1.8,0.9,2.8,1.4c3.5,1,6.8,2.6,10,4.4c1,0.2,1.9,0.4,2.6,1.2c2,0.1,2.8,1.1,2.7,3.2c-0.2,3.4-0.1,6.9-0.2,10.3
		c0,1.5,0,3,0,4.5c0,4.5,0,9,0,13.5c0,1.5,0,3,0,4.5c0,4.5,0,9,0,13.5c0,1.5,0,3,0,4.5c0.6,1.5,1.3,0.5,2,0c2.3-1.9,4.5-4.1,7-5.7
		c4.2-2.8,6.6-6.2,5.8-11.4c0-1.5,0-3,0-4.5c0-4.5,0-9,0-13.5c0-1.5,0-3,0-4.5c-0.6-13.3-0.6-13.3,11.4-18.7
		c3.9-1.8,7.9-3.4,11.8-5.1c2.9-1.6,5.9-3.1,9.1-4c7.9-4,16.1-7.7,24.3-11c2.5-1.6,5.2-2.8,8.1-3.6c7.8-3.6,15.6-7.2,23.4-10.9
		c2.6-1.2,1.7,0.7,1.7,1.8c0,1.5,0,3,0,4.5c0,4.5,0,9,0,13.5c0,1.5,0,3,0,4.5c0,4.5,0,9,0,13.5c0,1.5,0,3,0,4.5c0,4.5,0,9,0,13.5
		c0,1.5,0,3,0,4.5c0,4.5,0,9,0,13.5c0,1.5,0,3,0,4.5c-2,9.5,4.4,16,8.3,23.4c0.9,0.7,1.5,1.6,1.7,2.7c1.9,1.8,2.2,4.7,4.5,6.2
		c0.1-4.5,0.1-9,0.2-13.4c0-1.5,0-3,0-4.5c0-4.5,0-9,0-13.5c0-1.5,0-3,0-4.5c0-4.5,0-9,0-13.5c0-1.5,0-3,0-4.5c0-4.5,0-9,0-13.5
		c0-1.5,0-3,0-4.5c0-4.5,0-9,0-13.5c0-1.5,0-3,0-4.5c0-7,0-14,0-21.6c5.3,2.5,10.3,4.9,15.2,7.2c1.4,0.2,2.7,0.8,3.8,1.7
		c3.4,1,6.6,2.5,9.6,4.3c0.7,0.3,1.3,0.6,2,0.9c3.1,1,6.1,2.3,8.9,4c1.4,0.2,2.6,0.7,3.6,1.7c3,1.3,6,2.6,9,3.9
		c0.9,0.5,1.8,1,2.8,1.4c3.5,1.1,6.8,2.6,10,4.4c1,0.1,1.9,0.4,2.6,1.2c3.1,1.3,6.1,2.7,9.2,4c1.5,0.7,3,1.4,4.5,2.2
		c3,1.6,7.4,1.1,8.7,5.5c0,1.5,0,3,0,4.5c0,4.5,0,9,0,13.5c0,1.5,0,3,0,4.5c0,4.5,0,9,0,13.5c0,1.5,0,3,0,4.5c0,4.5,0,9,0,13.5
		c0,1.5,0,3,0,4.5c0,4.5,0,9,0,13.5c0,1.5,0,3,0,4.5c0,4.5,0,9,0,13.5c0,1.5,0,3,0,4.5c0,4.5,0,9,0,13.5c0,1.5,0,3,0,4.5
		c0,4.5,0,9,0,13.5c0,1.5,0,3,0,4.5c0.1,3.5,0.2,7,0.3,10.5c2.2-2.3,4.5-4.7,6.7-7c0.1-0.1,0.1-0.3,0.2-0.4c6-5.5,8.7-12.1,7.6-20.2
		c0-1.5,0-3,0-4.5c0-4.5,0-9,0-13.5c0-1.5,0-3,0-4.5c0-4.5,0-9,0-13.5c0-1.5,0-3,0-4.5c0-4.5,0-9,0-13.5c0-1.5,0-3,0-4.5
		c0-4.5,0-9,0-13.5c0-1.5,0-3,0-4.5c0-4.5,0-9,0-13.5c0-1.5,0-3,0-4.5c0-4.5,0-9,0-13.5c-0.4-7.2-0.4-7.2,5.9-9.9
		c2.1-0.9,4.3-1.7,6.5-2.6c7.9-4,16.1-7.6,24.3-10.9c2.5-1.6,5.2-2.8,8.1-3.6c7.9-4,16.1-7.6,24.3-10.9c2.5-1.6,5.2-2.8,8.1-3.6
		c4.4-2.1,8.7-4.2,13.3-6.4c0,3.4,0,6.2,0,9c0,1.5,0,3,0,4.5c0,4.5,0,9,0,13.5c0,1.5,0,3,0,4.5c0,4.5,0,9,0,13.5c0,1.5,0,3,0,4.5
		c0,4.5,0,9,0,13.5c0,1.5,0,3,0,4.5c0,4.5,0,9,0,13.5c0,1.5,0,3,0,4.5c0,4.5,0,9,0,13.5c0,1.5,0,3,0,4.5c0,4.5,0,9,0,13.5
		c0,1.5,0,3,0,4.5c0,4.5,0,9,0,13.5c0,1.5,0,3,0,4.5c0,4.5,0,9,0,13.5c0,1.5,0,3,0,4.5c0,4.5,0,9,0,13.5c0,1.5,0,3,0,4.5
		c0,4.5,0,9,0,13.5c0,1.5,0,3,0,4.5c0,4.5,0,9,0,13.5c0,1.5,0,3,0,4.5c0,4.5,0,9,0,13.5c0,1.5,0,3,0,4.5c0,4.5,0,9,0,13.5
		c0,1.5,0,3,0,4.5C459.5,366.7,459.5,366.7,446.9,372.3z"/>
	<path d="M139.2,220.8c2-4.9,6.2-8.2,9.1-12.4c1.7-1.7,3.4-3.5,5.1-5.2c1.7-1,2.3,0.5,3.2,1.4c2.5,2.7,5,5.4,7.5,8.1
		c-4,4.9-8.8,9.2-12.3,14.6c-0.9,1.4-1.9,1-3.1,0.6c-0.6-1-1.6-1.5-2.6-1.9C143.8,224.3,141.5,222.6,139.2,220.8z"/>
	<path d="M383.4,264.9c-0.8-1.2-0.1-2.3,0.2-3.4c2.8-4.6,4.9-9.5,6.9-14.5c0.9-2.1,1.9-2.8,4-1.6
		c0.6,0.4,1.4,0.6,2.1,0.8c8.3,3.3,8.3,3.3,5.3,11.6c-1.3,2.6-2.5,5.3-3.8,7.9c-1.6,1.4-1.1,4.6-4.1,4.8c-0.8-0.5-1.7-0.9-2.5-1.4
		C388.9,267.5,386.3,266,383.4,264.9z"/>
	<path d="M348.7,318.3c-0.5-0.9-0.9-1.9-1.4-2.8c-1.2-3.2-2.4-6.5-3.5-9.7l0,0c5.2-1.9,9.6-5,13.6-8.6
		c2.3-2,3.6-1.8,5.3,0.4c0.7,1,1.6,1.8,2.5,2.6c5,5.5,5,5.5-0.7,10c-3.8,3-7.8,5.6-12.1,7.7C351.2,318.4,350,320,348.7,318.3z"/>
	<path d="M388.6,277.6c0.8,0.9,2.2,1.4,1,3.2c-3.6,5.5-7.2,11-11.5,15.9c-3.1,3.5-3.7-1.8-5.9-1.8
		c-1.1-1-2.3-1.9-3.4-2.9c-2.9-2.1-2.6-4-0.2-6.6c2.8-3,5.2-6.5,7.3-10.1c1.8-3.1,3.4-3.6,6.1-1.3c1.1,0.9,2.6,1.4,3.9,2.1
		C386.5,276.9,387.5,277.4,388.6,277.6z"/>
	<path d="M244.3,219.9c3.2-0.4,5.3-3.7,8.8-3.3c1,2.7,2.1,5.4,3.8,7.9c0,0.7,0,1.4,0.7,1.8c1.3,3.3,2.6,6.6,3.9,9.9
		c0,2.6-2.7,1.9-3.8,3c-2.2,0.8-4.5,1.4-6.6,2.4c-2.4,1.3-3.3,0-4.2-1.9c-0.1-1.4-0.7-2.6-1.5-3.7c-1.1-3.7-2.5-7.1-4.6-10.4
		c-0.2-0.5-0.4-1-0.6-1.4C239.4,220.8,243.3,221.7,244.3,219.9z"/>
	<path d="M233.9,192.2c1,0.8,2.1,1.7,3.1,2.5c3.1,3.5,6.4,6.7,9.1,10.6c1.3,1.8,1.1,2.8-0.8,3.9c-3.4,2-6.6,4.1-9.9,6.2
		c-0.9-1.2-1.9-2.4-2.8-3.6c-1.5-2.6-3.5-4.8-6-6.4c-0.6-1-1.4-1.6-2.5-1.9c-0.6-0.9-2.1-1.4-1.1-2.9c2-3.2,3.6-6.6,5.8-9.5
		C230.8,188.4,232.1,192.1,233.9,192.2z"/>
	<path d="M269.5,268.6c-2.9,0.5-5.4,1.9-8,3.1c-1.6,0.7-2.3,0.2-2.9-1.4c-0.7-1.9-1.6-3.7-2.5-5.5
		c-0.2-0.6-0.3-1.1-0.5-1.7c-1.2-3.3-2.4-6.7-3.6-10c-1.3-3.9,2.9-2.4,4-4c1.6-0.5,3.3-0.7,4.7-1.5c3.4-2.1,5-0.7,6,2.5
		c0.1,0.9,0,1.8,0.9,2.4c0.9,4.1,2.5,7.9,4.3,11.6c0.2,0.6,0.5,1.3,0.7,1.9C272.4,267.8,270.3,267.5,269.5,268.6z"/>
	<path d="M267.8,290.2c-0.5-0.9-1-1.9-1.5-2.8c-2.9-6.6-3-6.8,3.8-9.6c2.1-0.9,4.2-4.5,7.2-1.4c0.2,0.8,0.3,1.7,1.1,2.1
		c1,3,2.6,5.6,4.6,8.1c0.5,1.5,1.4,2.7,2.6,3.7c0.1,0.9,1.7,1.8,0.6,2.7c-3.7,2.7-6.4,6.8-11.2,8c-0.9-1.2-1.8-2.5-2.8-3.7
		C270.8,295,269.3,292.6,267.8,290.2z"/>
	<path d="M283.2,309.8c-0.3-2.4,2.4-3,3-4.9c2-2,3.9-4,5.9-6.1c1.3-0.3,1.7,1.1,2.7,1.3c2.3,2.3,5,3.9,8,5.2
		c0.6,0.3,1.2,0.6,1.8,0.8c3.6,1,5,2.9,3,6.6c-0.7,1.4-0.8,3.1-1.2,4.7c-1.2,1.5-0.7,5.1-4.4,3.7c-3-1.4-5.9-2.8-8.9-4.2
		c-0.4-0.2-0.9-0.5-1.3-0.7C289,314,286.1,311.9,283.2,309.8z"/>
	<path d="M395,236.1c0.6-2.1,1.2-4.2,1.8-6.3c1.8-3.3,2.8-6.9,3.7-10.5c0.8-3.3,2-4.7,5.5-3c1,0.5,2.3,0.6,3.5,0.8
		c1.1,0.7,2.3,1.1,3.6,1c1.6,0.7,3.1,1.3,2,3.7c-1,2.2-1.4,4.7-2,7.1c-1.2,1.9-1.6,4-2.1,6.2c-0.4,1-1,1.9-1.2,2.9
		c-0.6,2.9-2,3.1-4.5,2C401.8,238.5,398.4,237.4,395,236.1z"/>
	<path d="M219.3,187.6c-0.8,2.3-1.9,4.6-2,7.1c-1.4,1.1-0.4,4.5-3.6,3.9c-1.4-0.3-2.9-0.6-4.3-0.8
		c-4.3-0.9-8.6-0.2-12.9-0.2c-0.2-0.7-0.4-1.4-0.6-2.1c-0.4-3.6-0.9-7.2-1.3-10.7c0.3-0.5,0.7-1.1,1-1.6c4.5-0.1,9-0.2,13.5-0.3
		c1.4,0.2,2.9,0.5,4.3,0.7c1.5,0.4,3.1,0.9,4.6,1.1C220.2,185,219.5,186.3,219.3,187.6z"/>
	<path d="M138.7,250.6c-1.7,1.1-0.8,4.3-3.6,4.5c-3.1-1.9-6.5-3.1-9.9-4.3c-0.4-0.2-0.9-0.3-1.3-0.5
		c-1.2-1.6,0.1-2.9,0.7-4.1c1.7-3.8,3.5-7.5,5.5-11.2c3.2-6.2,3.3-6.2,9.3-3.2c0.9,1,2,1.6,3.3,2c3.2,1.4,3.1,3.4,1.3,6.1
		C141.9,243.2,139.9,246.7,138.7,250.6z"/>
	<path d="M185.5,187c0.1,1.1,0,2.3,0.9,3.2c-0.1,3.2,3.1,6.6,1.4,8.9c-1.6,2.2-5.6,2.5-8.4,3.8
		c-2.3,1.1-4.5,2.4-6.7,3.7c-1.1,0.7-2,1.3-3.2,0.3c-1.6-2.5-3-5.2-4.9-7.4c-2.3-2.6-1.9-4.3,1.1-5.7c1.3-0.6,2.5-1.5,3.8-2.3
		c4-1.7,8.1-3.4,12.2-5.1C183,186,184.5,184.9,185.5,187z"/>
	<path d="M127.9,279.5c-1.5,1.5-0.4,5.6-4.5,4.4c-3.1-1.4-6.5-2.2-9.8-2.9c-0.4-0.5-0.8-1-1.2-1.5
		c2.2-6.6,4.3-13.2,6.5-19.8c0.3-0.4,0.6-0.7,1-1.1c3.3,1.1,6.5,2.3,9.8,3.4c0.7,0.2,1.4,0.5,2.1,0.7c1.7,1.2,0.6,2.6,0.2,4
		C130.6,270.9,128.6,275,127.9,279.5z"/>
	<path d="M121,303.9c-0.5,2-1,4.1-1.5,6.1c-2.1,5.6-2.1,5.6-7.7,3.2c-2.5-1-4.9-2.1-7.4-3.1c0.3-1.8,0.7-3.6,1-5.4
		c1.2-4,2.5-7.9,3.4-12c0.6-2.8,1.4-4,4.4-2.7c1.7,0.7,3.8,0.8,5.6,1.2c1,1,2.3,0.9,3.6,1c2.4,2.2-0.2,4.4-0.3,6.5
		C122.1,300.5,121.4,302.2,121,303.9z"/>
	<path d="M439.9,149.8c0.4,0.5,0.8,1,1.2,1.6c1.8,6.1,1,8.1-4.2,11.7c-0.5,0.3-1,0.7-1.5,1c-4.7,3.2-4.7,3.2-0.9,8
		c0.6,1.5,1.4,2.8,2.6,3.8c1.6,5.5,0.4,9.3-3.6,11.1c-3.9,1.7-7.5,0.3-10.6-4.2c-4.8-7.1-4.8-7.1-11.9-2c-0.4,0.3-0.7,0.6-1,0.9
		c-1.7,0.7-3.4,1.4-5.3,1.4c-3.1-0.5-5.2-2.2-6.7-4.9c-0.2-1.1-0.4-2.3-0.7-3.4c0.7-3.5,3.1-5.6,5.9-7.5c6.3-4.2,6.3-4.3,1.9-10.6
		c-0.4-0.6-0.9-1.2-1.4-1.7c-0.3-1.2-0.7-2.4-1-3.6c0.4-5.1,3.3-7.7,8.3-8.2c0.7,0.1,1.4,0.3,2.1,0.4c3.1,1.5,4.4,4.7,6.6,7
		c1.2,1.5,1.3,5.5,4.7,2.2c1.3-0.8,2.6-1.5,3.8-2.4C432.1,147.3,436,147.1,439.9,149.8z"/>
	<path d="M316.4,310.1c1.8,0,3.6-0.1,5.4-0.1c4.6,0.5,9.1,0.1,13.5-1.2c0.4,0.5,0.9,1,1.3,1.5c0.9,3.6,1.8,7.1,2.7,10.7
		c0.5,2.6-2.1,1.9-3.1,2.8c-4.8,0.3-9.6,0.7-14.4,1c-1.5-0.1-3-0.1-4.5-0.2c-2.2-0.3-3-1.4-2.4-3.7c0.4-1.7,0.4-3.5,0.6-5.3
		C316.3,313.8,316.4,312,316.4,310.1z"/>
	<path d="M119.5,324.7c0.7,1.2,1.4,2.4,2,3.7c0.9,3.5,1.3,7.1,0.7,10.7c-2.2,6.7-6.6,11.1-13.3,13.3
		c-3.6,0.5-7.2,0.2-10.7-0.7c-1.2-0.7-2.4-1.4-3.7-2c-2.4-2.2-4.5-4.7-6.1-7.5c-0.2-0.7-0.5-1.5-0.7-2.2c-1.3-5.5-0.2-10.5,2.7-15.3
		c1.3-1.3,2.6-2.6,3.9-3.9C104.6,315.2,111.3,316.3,119.5,324.7z"/>
</g>
</svg>
