<svg version="1.1" id="Camada_1" xmlns="http://www.w3.org/2000/svg" xmlns:xlink="http://www.w3.org/1999/xlink" x="0px" y="0px"
	 viewBox="0 0 512 512" style="enable-background:new 0 0 512 512;" xml:space="preserve">
<g>
	<path d="M313.3,235.9c-4.4-4.5-8-8.3-11.6-12c-43.2,36.8-103.4,25.4-133.3-12.2c-29.8-37.5-27-90.4,6.7-124
		c33.6-33.6,86.5-36.4,124-6.6c37.6,29.8,49.1,90.2,12.2,133.3c3.7,3.6,7.4,7.2,11.4,11.1c0.9-0.9,2.1-2.1,3.4-3.2
		c3.7-3.6,7-3.6,10.7,0.1c11.8,11.8,23.6,23.6,35.4,35.4c23.3,23.3,46.6,46.6,69.9,70c5.1,5.1,5.1,7.6,0,12.7
		c-5.1,5.1-10.2,10.2-15.3,15.3c-4,4-7,4-11,0c-35.3-35.3-70.6-70.6-105.9-105.9c-4.1-4.1-4.1-7.2,0-11.3
		C310.9,237.5,312.2,236.7,313.3,235.9z M240.7,233.5c43.8,0.1,80-35.7,80.2-79.5c0.2-44.4-35.5-80.6-79.7-80.8
		c-44.3-0.2-80.5,35.6-80.6,79.8C160.5,197.4,196.3,233.4,240.7,233.5z M323.1,243.6c33,33,65.8,65.9,98.1,98.2
		c2.8-2.5,5.8-5.2,8.3-7.5c-32.9-33-65.7-65.8-98.6-98.7C328.4,238.3,325.6,241.1,323.1,243.6z"/>
	<path d="M247.2,438.6c9.8,0,19,0,28.5,0c0.1-1,0.3-2,0.3-3c0-27.1,0-54.2,0.1-81.3c0-2.1-0.5-3.3-2.6-4.3
		c-7.9-3.9-11.9-10.5-11.9-19.3c0-22.3,0-44.6,0-66.9c0-5,2.5-7.9,6.6-7.8c3.9,0.1,6.2,2.9,6.2,7.7c0,21,0,41.9,0,62.9
		c0,1.3,0,2.7,0,4c0.1,5.1,3.4,8.7,8,8.7c4.6,0,8-3.5,8-8.7c0.1-14.4,0-28.8,0-43.3c0-7.9,0-15.8,0-23.6c0-4.8,2.3-7.7,6.2-7.8
		c4-0.1,6.6,2.9,6.6,7.8c0,22.4,0,44.9,0,67.3c0,8.3-3.8,14.7-11.2,18.5c-2.6,1.3-3.3,2.7-3.3,5.4c0.1,29.2,0.1,58.5,0,87.7
		c0,6.8-2,8.7-8.9,8.7c-26.2,0-52.3,0-78.5,0c-6.8,0-8.8-1.9-8.8-8.8c0-38.2,0-76.4,0.1-114.6c0-2.9-0.5-4.6-3.4-5.8
		c-2.1-0.9-4-2.6-5.7-4.3c-10.9-10.1-21.7-20.2-32.5-30.3c-10.8-10.1-10.8-22.9,0-33.1c5.5-5.2,11.1-10.4,16.7-15.6
		c3.4-3.2,7.3-3.4,9.9-0.7c2.8,2.9,2.4,6.7-1.2,10.1c-5.6,5.3-11.3,10.6-17,15.9c-5,4.7-5,9.1,0,13.7c10.7,10,21.5,20,32.2,30.1
		c0.4,0.4,0.8,0.7,1.2,1.1c4.2,3.7,8.8,3.8,12.1,0.4c3.4-3.6,2.9-8.3-1.4-12.3c-6.9-6.5-13.9-12.9-20.8-19.4
		c-5.5-5.2-5.6-8.1-0.1-13.1c2.2-2.1,4.4-4.2,6.7-6.3c3.5-3.1,7.3-3.2,9.9-0.3c2.5,2.8,2.1,6.5-1.1,9.6c-1.1,1.1-2.5,2-4,3.2
		c6.3,5.9,11.9,11.1,17.5,16.4c12.7,11.9,10.8,27.3-4.2,36c-1.1,0.6-1.8,2.7-1.8,4.2c-0.1,31.8-0.1,63.6-0.1,95.3
		c0,5.1,0,10.1,0,15.5c9.5,0,18.9,0,28.8,0c0-1.5,0-3,0-4.6c0-24.6,0-49.1,0-73.7c0-5.1,2.4-8,6.4-7.9c3.9,0,6.4,2.9,6.4,7.6
		c0,19.1,0,38.2,0,57.3C247.2,424.1,247.2,431.1,247.2,438.6z"/>
	<path d="M93.3,412.8c9.8,0,19.1,0,28.8,0c0-1.8,0-3.3,0-4.9c0-24.3,0-48.6,0-72.9c0-0.5,0-1.1,0-1.6c0.2-4.1,2.6-6.8,6.2-6.9
		c3.8-0.1,6.5,2.7,6.6,7c0.1,11.8,0,23.5,0,35.3c0,14.5,0,29.1,0,44c9.5,0,18.9,0,28.8,0c0-1.5,0-3,0-4.6c0-25.5,0-51,0.1-76.5
		c0-2.1,0.5-5,1.9-6.1c1.6-1.3,4.6-1.9,6.8-1.5c3.1,0.6,4.1,3.4,4.1,6.5c0,14,0,28,0,42.1c0,15,0,29.9,0,44.9c0,6.3-2.1,8.4-8.4,8.4
		c-26.3,0-52.6,0-78.9,0c-6.9,0-8.9-1.9-8.9-8.7c0-29.1,0-58.2,0-87.3c0-2.8-0.5-4.4-3.3-5.9c-7.2-3.7-11.1-10-11.1-18.1
		c-0.1-31-0.1-62,0-92.9c0-12,9.1-20.9,21.2-21c16.4-0.1,32.8,0,49.3,0c5.1,0,8,2.4,8.1,6.3c0,4.1-3,6.5-8.3,6.5
		c-15.9,0-31.8,0-47.7,0c-6.9,0-9.7,2.9-9.7,9.8c0,29.8,0,59.6,0,89.3c0,6.5,2.1,8.9,8.4,9.9c4.2,0.6,6,3,6,8c0,29,0,58,0,86.9
		C93.3,409.9,93.3,411.2,93.3,412.8z"/>
	<path d="M317.7,412.8c9.7,0,18.9,0,28.8,0c0-1.5,0-3.1,0-4.6c0-24.6,0-49.1,0-73.7c0-4.6,1.7-7.2,5.1-7.9c4.2-0.9,7.7,2.3,7.7,7.4
		c0,17,0,33.9,0,50.9c0,9.2,0,18.4,0,27.9c9.6,0,19,0,28.8,0c0-1.4,0-2.8,0-4.2c0-14.5,0-29.1,0-43.6c0-0.9,0-1.9,0-2.8
		c0.2-4.1,2.8-6.7,6.4-6.7c3.7,0,6.3,2.7,6.3,6.8c0.1,19,0.1,37.9,0,56.9c0,4.2-2.5,6.8-6.7,6.8c-27.5,0.1-55,0.1-82.5,0
		c-4.5,0-6.9-2.5-6.9-7c-0.1-20.8,0-41.6,0-62.5c0-4.6,2.6-7.5,6.6-7.4c3.7,0.1,6.2,2.9,6.2,7.3c0,17.5,0,35,0,52.5
		C317.7,410,317.7,411.3,317.7,412.8z"/>
	<path d="M415.4,239.2c0,8.8,0,17.6,0,26.4c0,5.1-2.4,8-6.3,8c-4,0-6.4-2.9-6.5-7.9c0-16.9,0-33.9,0-50.8c0-7.4-2.7-10.1-10.1-10.1
		c-16,0-32,0-48,0c-5.6,0-9.3-4.5-6.9-8.7c1.1-1.9,4-3.9,6.1-4c17.3-0.3,34.7-0.3,52-0.1c10.6,0.1,19.5,9.4,19.7,20.4
		C415.6,221.3,415.4,230.2,415.4,239.2z"/>
	<path d="M93.3,131.6c-1.3-21.8,13.1-34.5,25.9-37.9c8.2-2.2,16.1-1.6,23.8,1.9c4,1.8,5.5,5.2,3.9,8.7c-1.5,3.3-5.1,4.9-8.7,3.1
		c-13.2-6.9-32.8,2.5-32.3,22.7c0.3,12.1,3,22.7,12.2,30.9c3.4,3.1,7.2,5.3,12.2,5.2c3.6-0.1,6.1,2.6,6.2,6c0.2,3.5-2.3,6.3-6,6.7
		c-5.8,0.6-11.1-1.2-15.9-4.4c-13.5-9.2-20.2-22.3-21.4-38.3C93.2,134.6,93.3,133,93.3,131.6z"/>
	<path d="M388.1,128.8c0.1,18.9-5.4,32.8-18.2,43.3c-5,4.1-10.8,6.9-17.5,6.9c-4.7,0-7.6-2.5-7.6-6.4c-0.1-4,2.6-5.9,7.4-6.6
		c2.9-0.4,6-1.5,8.4-3.1c9.5-6.6,14-16.2,14.6-27.6c0.2-3.8,0.2-7.8-0.5-11.6c-2.2-13.6-16.2-21.7-29.3-17.2c-0.9,0.3-1.7,0.7-2.6,1
		c-3.8,1.3-7.2-0.2-8.6-3.6c-1.3-3.2,0.1-6.6,3.7-8.2c7.8-3.7,15.9-4.4,24.2-2.1C378.5,98.4,388.1,112.2,388.1,128.8z"/>
	<path d="M282.4,148.1c0.4,19.9-6.3,36.6-22.3,49c-13.2,10.2-25.5,10.2-38.7,0c-13.7-10.5-20.9-24.7-22.1-41.7
		c-0.6-9-0.8-18.1,2.7-26.8c7.5-18.7,26.7-29.3,46.9-25.6c19,3.5,33.3,20.7,33.5,40.3C282.4,144.9,282.4,146.5,282.4,148.1z
		 M269.6,147.9c0-1.3,0-3,0-4.8c-0.3-14.6-11.7-26.8-26.1-28.1c-14.6-1.3-28.1,8.4-30.8,22.8c-0.9,4.9-0.9,10.1-0.7,15.1
		c0.5,13,5.7,24,15.5,32.6c9.4,8.3,17.1,8.2,26.5-0.1C265.1,175.6,270.1,163.1,269.6,147.9z"/>
</g>
</svg>
