<?xml version="1.0" encoding="utf-8"?>
<svg version="1.1" id="Camada_1" xmlns="http://www.w3.org/2000/svg" xmlns:xlink="http://www.w3.org/1999/xlink" x="0px" y="0px"
	 viewBox="0 0 512 512" style="enable-background:new 0 0 512 512;" xml:space="preserve">
<g>
	<path d="M65.3,160.7c0-9.9,0-19.2,0-28.5c0.1-15.6,8.8-24.3,24.4-24.4c11.5,0,23.1,0,34.6,0c5.9,0,9.2-2.6,9.2-7.1
		c0-4.9-3.4-7.8-9.2-7.9c-11.2,0-22.4,0-33.6,0c-23.6,0-40.4,16.9-40.4,40.7c0,74.1,0,148.1,0,222.2c0,23.1,17,40.1,39.9,40.1
		c56.2,0,112.5,0,168.7,0c1.3,0,2.5,0.1,3.8,0c4.2-0.4,6.7-2.7,7.1-6.9c0.4-3.8-2.6-7.3-6.6-7.9c-1.6-0.2-3.2-0.1-4.7-0.1
		c-56.5,0-113.1,0-169.6,0c-14.8,0-23.6-8.8-23.7-23.5c0-58.8,0-117.5,0-176.3c0-1.7,0-3.3,0-4.8c116.8,0,232.8,0,349,0
		c0,2.3,0,4.2,0,6c0,25,0,49.9,0,74.9c0,6.1,2.7,9.5,7.4,9.7c4.7,0.1,7.5-3.4,7.5-9.4c0-42.3,0.1-84.7,0-127
		c0-19.9-17.8-37.6-37.6-37.7c-12.2-0.1-24.3,0-36.5,0c-5.8,0-9.1,3-9.1,7.9c0,4.5,3.4,7.1,9.2,7.1c12,0,24-0.1,36,0
		c12.3,0.1,21.1,6.8,22.3,18.8c1.1,11.2,0.2,22.6,0.2,34.1C297.7,160.7,181.8,160.7,65.3,160.7z"/>
	<path d="M285.7,92.8c-7.3,0-14.5,0-21.8,0c-5.6,0-8.9,2.9-8.9,7.6c0,4.4,3.3,7.3,8.6,7.3c14.4,0,28.7,0,43.1,0
		c5.3,0,8.6-2.9,8.7-7.3c0-4.6-3.3-7.5-8.9-7.6C299.6,92.7,292.7,92.8,285.7,92.8z"/>
	<path d="M194.6,92.8c-7.3,0-14.5,0-21.8,0c-5.5,0-8.9,3-8.8,7.7c0.1,4.4,3.4,7.2,8.7,7.2c14.4,0,28.7,0,43.1,0
		c5.3,0,8.6-3,8.6-7.4c0-4.5-3.3-7.4-8.5-7.5C208.8,92.7,201.7,92.8,194.6,92.8z"/>
	<path d="M217,215.9c-7.3,0-15.1,7.7-15,14.8c0.1,7.1,7.6,14.5,14.8,14.6c7.4,0.1,15.2-7.3,15.3-14.6
		C232.1,223.6,224.3,215.9,217,215.9z"/>
	<path d="M269.9,245.3c7.4,0.1,15.2-7.4,15.2-14.7c0-6.9-7.6-14.6-14.6-14.8c-7.3-0.2-15.1,7.2-15.4,14.5
		C254.8,237.5,262.5,245.2,269.9,245.3z"/>
	<path d="M323.4,215.9c-7.3-0.1-15.1,7.3-15.3,14.5c-0.2,7.2,7.5,14.9,14.9,14.9c7.4,0,15.1-7.5,15.1-14.8
		C338.1,223.6,330.5,216,323.4,215.9z"/>
	<path d="M375.8,245.3c7.4,0.2,15.2-7.1,15.4-14.4c0.2-6.8-7.4-14.7-14.4-15c-7.5-0.3-15.6,7.3-15.6,14.7
		C361.2,237.6,368.6,245.1,375.8,245.3z"/>
	<path d="M111.1,269c-7.3-0.1-15.1,7.3-15.3,14.6c-0.1,7.2,7.6,14.8,15,14.8c7.4,0,15.1-7.6,15.1-14.8
		C125.8,276.6,118.2,269.1,111.1,269z"/>
	<path d="M163.7,298.4c7.4,0.1,15.2-7.3,15.2-14.6c0.1-6.9-7.5-14.6-14.6-14.8c-7.4-0.2-15.2,7.1-15.4,14.4
		C148.6,290.5,156.3,298.3,163.7,298.4z"/>
	<path d="M216.9,298.4c7.4,0.1,15.2-7.4,15.2-14.7c0-6.9-7.6-14.6-14.7-14.7c-7.3-0.1-15.1,7.2-15.4,14.5
		C201.8,290.6,209.4,298.3,216.9,298.4z"/>
	<path d="M270.2,269c-7.3-0.1-15.1,7.5-15.2,14.7c-0.1,7.2,7.6,14.8,15.1,14.8c7.2,0,14.7-7.2,15-14.4
		C285.3,277,277.5,269,270.2,269z"/>
	<path d="M111.2,322c-7.3-0.1-15.1,7.3-15.3,14.5c-0.2,7.2,7.5,14.9,14.9,14.9c7.4,0,15.1-7.5,15.1-14.7
		C125.8,329.8,118.2,322.2,111.2,322z"/>
	<path d="M163.8,351.5c7.4,0.1,15.2-7.4,15.1-14.7c0-6.9-7.6-14.6-14.7-14.7c-7.3-0.1-15.1,7.2-15.4,14.5
		C148.7,343.7,156.4,351.4,163.8,351.5z"/>
	<path d="M216.7,351.5c7.4,0.1,15.2-7.2,15.3-14.5c0.2-6.9-7.5-14.7-14.5-14.9c-7.5-0.2-15.6,7.4-15.6,14.8
		C202,343.9,209.5,351.3,216.7,351.5z"/>
	<path d="M333.6,62.3c3.7,2.8,4.8,6.4,4.7,11c-0.3,13.4-0.1,26.8-0.1,40.3c0,5.7-2.7,9.1-7.3,9.2
		c-4.8,0.2-7.7-3.3-7.7-9.2c0-13.4,0.2-26.8-0.1-40.3c-0.1-4.6,1-8.3,4.7-11C329.8,62.3,331.7,62.3,333.6,62.3z"/>
	<path d="M242.6,62.3c3.7,2.8,4.8,6.4,4.7,11c-0.3,13.4-0.1,26.8-0.1,40.3c0,5.7-2.7,9.1-7.3,9.2
		c-4.8,0.2-7.7-3.3-7.7-9.2c0-13.4,0.2-26.8-0.1-40.3c-0.1-4.6,1-8.3,4.7-11C238.8,62.3,240.7,62.3,242.6,62.3z"/>
	<path d="M151.6,62.3c3.7,2.8,4.8,6.4,4.7,11c-0.3,13.4-0.1,26.8-0.1,40.3c0,5.7-2.7,9.1-7.3,9.2
		c-4.8,0.2-7.7-3.3-7.7-9.2c0-13.4,0.2-26.8-0.1-40.3c-0.1-4.6,1-8.3,4.7-11C147.8,62.3,149.7,62.3,151.6,62.3z"/>
	<path d="M65.3,160.7c116.5,0,232.3,0,348.4,0c0-11.5,0.9-22.9-0.2-34.1c-1.2-12-10-18.6-22.3-18.8c-12-0.1-24,0-36,0
		c-5.9,0-9.2-2.6-9.2-7.1c0-4.9,3.3-7.9,9.1-7.9c12.2,0,24.3-0.1,36.5,0c19.8,0.1,37.6,17.8,37.6,37.7c0.1,42.3,0,84.7,0,127
		c0,6-2.9,9.5-7.5,9.4c-4.7-0.1-7.4-3.6-7.4-9.7c0-25,0-49.9,0-74.9c0-1.9,0-3.8,0-6c-116.2,0-232.2,0-349,0c0,1.5,0,3.1,0,4.8
		c0,58.8,0,117.5,0,176.3c0,14.7,8.8,23.5,23.7,23.5c56.5,0,113.1,0,169.6,0c1.6,0,3.2-0.1,4.7,0.1c4,0.6,7.1,4.1,6.6,7.9
		c-0.5,4.1-3,6.5-7.1,6.9c-1.3,0.1-2.5,0-3.8,0c-56.2,0-112.5,0-168.7,0c-23,0-39.9-17.1-39.9-40.1c0-74.1,0-148.1,0-222.2
		c0-23.8,16.8-40.6,40.4-40.7c11.2,0,22.4,0,33.6,0c5.8,0,9.2,3,9.2,7.9c0,4.5-3.3,7.1-9.2,7.1c-11.5,0-23.1,0-34.6,0
		c-15.6,0.1-24.3,8.8-24.4,24.4C65.3,141.5,65.3,150.8,65.3,160.7z"/>
	<path d="M461.7,357.9c0.1,49.5-41.9,91.7-91.4,91.8c-49.5,0.1-91.6-41.9-91.6-91.4c0-49.7,42-92,91.5-91.9
		C419.7,266.4,461.6,308.3,461.7,357.9z M446.9,358c0-43-33.3-76.8-76.1-76.9c-43.9-0.1-77.2,32.9-77.3,76.5
		c-0.1,43.6,32.9,77.1,76.1,77.2C413.3,434.9,446.9,401.5,446.9,358z"/>
	<path d="M285.7,92.8c6.9,0,13.9,0,20.8,0c5.6,0,8.9,3,8.9,7.6c0,4.4-3.4,7.3-8.7,7.3c-14.4,0-28.7,0-43.1,0
		c-5.3,0-8.6-2.9-8.6-7.3c0-4.6,3.3-7.5,8.9-7.6C271.2,92.7,278.5,92.8,285.7,92.8z"/>
	<path d="M194.6,92.8c7.1,0,14.2,0,21.3,0c5.2,0,8.5,3,8.5,7.5c0,4.4-3.3,7.4-8.6,7.4c-14.4,0-28.7,0-43.1,0
		c-5.3,0-8.6-2.8-8.7-7.2c-0.1-4.6,3.3-7.6,8.8-7.7C180.1,92.7,187.4,92.8,194.6,92.8z"/>
	<path d="M217,215.9c7.3,0,15.1,7.7,15,14.8c-0.1,7.3-7.8,14.7-15.3,14.6c-7.2-0.1-14.7-7.5-14.8-14.6
		C201.9,223.6,209.7,215.9,217,215.9z"/>
	<path d="M269.9,245.3c-7.4-0.1-15.1-7.8-14.9-15c0.3-7.3,8.1-14.6,15.4-14.5c7,0.1,14.7,7.8,14.6,14.8
		C285.1,237.9,277.3,245.4,269.9,245.3z"/>
	<path d="M323.4,215.9c7,0.1,14.7,7.7,14.7,14.7c0.1,7.2-7.7,14.8-15.1,14.8c-7.4,0-15.1-7.7-14.9-14.9
		C308.3,223.2,316.1,215.8,323.4,215.9z"/>
	<path d="M375.8,245.3c-7.2-0.2-14.7-7.7-14.6-14.7c0-7.4,8.1-14.9,15.6-14.7c7,0.2,14.6,8.2,14.4,15
		C391,238.3,383.3,245.5,375.8,245.3z"/>
	<path d="M111.1,269c7,0.1,14.7,7.7,14.8,14.6c0.1,7.2-7.6,14.8-15.1,14.8c-7.4,0-15.1-7.7-15-14.8
		C96,276.3,103.8,268.9,111.1,269z"/>
	<path d="M163.7,298.4c-7.4-0.1-15.1-7.9-14.8-15c0.3-7.3,8.1-14.6,15.4-14.4c7,0.2,14.7,7.9,14.6,14.8
		C178.9,291.1,171.1,298.5,163.7,298.4z"/>
	<path d="M216.9,298.4c-7.4-0.1-15.1-7.8-14.9-14.9c0.2-7.3,8-14.6,15.4-14.5c7,0.1,14.7,7.8,14.7,14.7
		C232,291,224.3,298.4,216.9,298.4z"/>
	<path d="M270.2,269c7.3,0.1,15.1,8,14.8,15c-0.3,7.2-7.7,14.4-15,14.4c-7.4,0-15.1-7.5-15.1-14.8
		C255.1,276.4,262.9,268.9,270.2,269z"/>
	<path d="M111.2,322c7,0.1,14.7,7.7,14.7,14.7c0,7.2-7.7,14.8-15.1,14.7c-7.4,0-15.1-7.7-14.9-14.9
		C96,329.3,103.8,321.9,111.2,322z"/>
	<path d="M163.8,351.5c-7.4-0.1-15.1-7.8-14.9-14.9c0.2-7.3,8-14.6,15.4-14.5c7,0.1,14.7,7.8,14.7,14.7
		C179,344,171.2,351.5,163.8,351.5z"/>
	<path d="M216.7,351.5c-7.2-0.1-14.7-7.6-14.7-14.7c0-7.4,8-15,15.6-14.8c7,0.2,14.6,8.1,14.5,14.9
		C231.8,344.3,224.1,351.6,216.7,351.5z"/>
	<path d="M340.7,300.5c1.3,1.2,4,2.9,5.6,5.3c8.3,13,16.5,26.1,24.5,39.3c1.9,3.1,3.7,3.8,7.1,2.5
		c8.8-3.4,17.7-6.4,26.6-9.5c5.5-1.9,9.7-0.6,11.2,3.5c1.7,4.5-0.6,8.3-6.2,10.3c-12,4.3-24,8.5-36,12.8c-4.5,1.6-7.8,0.3-10.1-3.5
		c-10.1-16.2-20.1-32.4-30-48.7C329.9,307,333,300.5,340.7,300.5z"/>
</g>
</svg>
