<svg version="1.1" id="Camada_1" xmlns="http://www.w3.org/2000/svg" xmlns:xlink="http://www.w3.org/1999/xlink" x="0px" y="0px"
	 viewBox="0 0 512 512" style="enable-background:new 0 0 512 512;" xml:space="preserve">
<g>
	<path d="M142.9,250.7c0-15.7,0-31,0-46.2c0-6,1.6-7.7,7.4-7.7c12.4,0,24.9,0,37.3,0c1.1,0,2.2,0,3.6,0c0-1.3,0-2.5,0-3.5
		c0-19.8,0-39.5,0-59.3c0-5.5,1.7-7.2,7.2-7.2c14.9,0,29.9,0,44.8,0c5.5,0,7.2,1.8,7.2,7.2c0,26.9,0,53.9,0,80.8c0,1.1,0,2.2,0,3.4
		c11.3,0,22.1,0,33.6,0c-14.9-19-20.6-40.2-15.8-63.7c3.7-18.5,13.5-33.5,28.6-45c29.7-22.4,71.1-19.6,97.9,6.4
		c26.6,26,30.1,67.5,8.5,97.8c-21.3,30-66.2,43.4-104,18.3c0,8,0,15.7,0,23.9c1.1,0,2.3,0,3.5,0c23.3,0,46.4,0,69.7,0
		c2.9,0,5.1,0.8,7.1,2.9c11.5,11.7,23.1,23.3,34.7,34.7c2.3,2.2,3.2,4.5,3.2,7.7c-0.1,36-0.1,72-0.1,108.1c0,6.9-1.3,8.3-8.3,8.3
		c-102.7,0-205.3,0-308,0c-5.1,0-6.9-1.9-6.9-6.8c0-51.2,0-102.3,0-153.5c0-4.9,1.9-6.7,6.7-6.7c12.5,0,25.1,0,37.6,0
		C140,250.7,141.2,250.7,142.9,250.7z M299.1,406.6c36,0,71.7,0,107.3,0c0-34.1,0-68,0-102.1c-10.5,0-20.9,0-31.2,0
		c-4.1,0-6.1-2-6.2-6.2c0-1.4,0-2.9,0-4.3c0-8.9,0-17.9,0-27c-23.5,0-46.6,0-69.9,0C299.1,313.6,299.1,360,299.1,406.6z
		 M268.5,332.8c2.5,2.8,4.8,5.4,7,8.1c-7.9,6.9-15.3,13.6-23,20.4c-1.6,1.3-2.2,2.8-2.2,4.9c0.1,12.5,0,25.1,0.1,37.6
		c0,0.9,0.1,2,0.2,2.9c12.6,0,24.8,0,37.3,0c0-59.3,0-118.2,0-177.2c-12.6,0-24.9,0-37.5,0c0,13.8-0.1,27.2,0.1,40.6
		c0,2.1,0.6,4.2,1.6,6c4.4,8.6,9.2,17.2,13.9,26c-3.2,1.8-6.2,3.3-9.5,5.1c-2-3.5-3.7-6.7-5.8-10.7c0,17.8,0,34.6,0,52.1
		C256.8,343.1,262.5,338.1,268.5,332.8z M117.7,381.3c7.5-6.8,14.9-13.5,22.4-20.2c2-1.7,2.8-3.3,2.8-6c-0.2-9.2-0.1-18.4-0.1-27.6
		c0-1-0.1-2.1-0.2-3.9c-7.7,11.2-14.9,21.6-22.3,32.4c-3-2.1-5.8-4-8.8-6c0.8-1.2,1.6-2.3,2.2-3.3c9.1-13.3,18.3-26.6,27.4-39.9
		c1-1.4,1.7-3.4,1.7-5.2c0.1-12.3,0.1-24.7,0.1-37c0-0.9-0.1-2-0.2-2.9c-12.6,0-24.9,0-37.3,0c0,48.4,0,96.7,0,145
		c12.6,0,24.9,0,37.3,0c0-11.1,0-21.8,0-33.2c-6.1,5.5-11.9,10.7-17.8,15.9C122.5,386.7,120.1,384.1,117.7,381.3z M223.6,372.7
		c4.9-4.3,9.5-8.3,14-12.6c1.1-1.1,2.1-3.2,2.1-4.9c0.1-19.4,0.1-38.8,0.1-58.2c0-7,1.2-14.5-0.4-21.1s-6.3-12.5-9.6-18.7
		c-2.6-4.9-5.3-9.8-8.1-14.9c-6.3,4.2-12.4,8.2-18.4,12.3c-0.7,0.5-1.1,2.1-1.1,3.2c-0.1,31.1-0.1,62.4,0,93.5
		c0,1.1,0.6,2.7,1.4,3.4C210.1,360.7,216.7,366.6,223.6,372.7z M312.3,113c10.9,17,21.5,33.8,32.3,50.6c0.5,0.8,2,1.4,3,1.7
		c14.2,2.3,28.3,4.4,42.5,6.6c5.4,0.8,10.8,1.6,16.1,2.4c2.3-15.6-4.4-42-28-57.9C356.7,101.8,329.7,102.7,312.3,113z M202.2,242.3
		c6.1-4,11.7-7.9,17.3-11.5c4.3-2.8,7-2.1,9.5,2.5c0.7,1.2,1.3,2.6,2.1,3.8c2.7,5,5.4,9.9,8.4,15.5c0-38.9,0-76.8,0-114.8
		c-12.5,0-24.8,0-37.3,0C202.2,172.5,202.2,207.1,202.2,242.3z M306.3,223.3c16,11.7,41.3,15.4,62.7,5.3c18.7-8.9,30.5-23.5,36-43.6
		c-19.9-3.1-39.2-6.1-58.6-9c-0.9-0.1-2.5,0.4-3.1,1.2C330.9,192.6,318.7,207.9,306.3,223.3z M191.3,207.9c-12.8,0-25.1,0-37.5,0
		c0,26.7,0,53.2,0,79.7c0.3-0.1,0.6-0.2,0.7-0.3c0.5-0.6,0.9-1.2,1.3-1.9c8.6-14.2,18.4-27.2,33.9-34.7c0.1,0,0.2-0.1,0.3-0.2
		c0.4-0.8,1.2-1.7,1.2-2.5C191.3,234.7,191.3,221.4,191.3,207.9z M191.2,262.8c-6.8,4.3-13.1,8.3-17.3,15.1
		c-5.8,9.4-12.5,18.3-18.6,27.5c-0.9,1.3-1.6,3.2-1.6,4.9c-0.1,11.9-0.1,23.8-0.1,35.7c0,0.8,0.2,1.6,0.3,2.7
		c5.6-5.1,10.9-9.7,16.1-14.5c4.1-3.7,6-3.7,10.1-0.1c3.5,3.1,7.1,6.3,11.1,9.8C191.2,316.5,191.2,289.9,191.2,262.8z M175.1,344.1
		c-7,6.3-13.8,12.3-20.4,18.5c-0.8,0.7-1.1,2.4-1.1,3.6c-0.1,12.7,0,25.3,0,38.1c0,0.8,0.1,1.7,0.2,2.6c12.5,0,24.8,0,36.9,0
		c0.2-0.2,0.4-0.3,0.4-0.4c0-15.5,0.1-30.9,0.1-46.4c0-0.8-0.6-2-1.2-2.5C185.2,353,180.3,348.6,175.1,344.1z M280.7,150.2
		c-8.4,24.1,0.3,52.1,17.2,66.3c11.8-14.7,23.5-29.4,35.5-44.4C315.6,164.8,298.3,157.5,280.7,150.2z M239.6,373.2
		c-0.7,0.5-1,0.7-1.2,0.9c-3.1,2.8-6.2,5.5-9.3,8.3c-4.5,4.1-6.2,4.1-10.9-0.1c-5.2-4.5-10.3-9.1-15.9-14.1c0,13.2,0,25.9,0,38.5
		c12.5,0,24.9,0,37.3,0C239.6,395.5,239.6,384.6,239.6,373.2z M303.1,118.6c-7.8,6-13.8,13-18.2,21.6c14.4,6,28.4,11.9,42.5,17.7
		c0.1-0.2,0.3-0.3,0.4-0.5C319.5,144.6,311.3,131.7,303.1,118.6z M397.3,293.6c-5.7-5.8-11.7-11.8-17.3-17.5c0,5.3,0,11.3,0,17.5
		C386.1,293.6,392.1,293.6,397.3,293.6z"/>
	<path d="M126.7,164.6c-3.8,0-7.1,0-10.7,0c0-3.6,0-7,0-10.7c3.4,0,6.7,0,10.4,0c0-3.6,0-7,0-10.7c3.7,0,7.1,0,10.9,0
		c0,3.4,0,6.7,0,10.4c3.6,0,7,0,10.7,0c0,3.7,0,7.1,0,10.9c-3.4,0-6.7,0-10.4,0c0,3.6,0,7,0,10.7c-3.7,0-7.1,0-10.9,0
		C126.7,171.7,126.7,168.4,126.7,164.6z"/>
	<path d="M153.6,121.5c0-3.8,0-7.1,0-10.5c3.5,0,6.9,0,10.7,0c0,3.4,0,6.7,0,10.4c3.7,0,7,0,10.5,0c0,3.6,0,7,0,10.9
		c-3.4,0-6.7,0-10.4,0c0,3.7,0,7,0,10.5c-3.6,0-7,0-10.9,0c0-3.4,0-6.7,0-10.4c-3.7,0-7,0-10.5,0c0-3.6,0-7,0-10.9
		C146.4,121.5,149.8,121.5,153.6,121.5z"/>
	<path d="M309.9,331.3c0-3.6,0-6.9,0-10.3c28.6,0,57.1,0,85.7,0c0,3.3,0,6.7,0,10.3C367.2,331.3,338.7,331.3,309.9,331.3z"/>
	<path d="M395.8,342.4c0,3.5,0,6.8,0,10.3c-28.5,0-57,0-85.7,0c0-3.3,0-6.7,0-10.3C338.4,342.4,367,342.4,395.8,342.4z"/>
	<path d="M395.8,364c0,3.5,0,6.8,0,10.3c-28.6,0-57.2,0-85.8,0c0-3.5,0-6.8,0-10.3C338.4,364,367,364,395.8,364z"/>
	<path d="M309.9,395.9c0-3.5,0-6.8,0-10.3c28.6,0,57.2,0,85.8,0c0,3.5,0,6.8,0,10.3C367.3,395.9,338.7,395.9,309.9,395.9z"/>
	<path d="M358.1,277.9c0,3.5,0,6.9,0,10.3c-16,0-32,0-48.1,0c0-3.3,0-6.7,0-10.3C325.9,277.9,341.8,277.9,358.1,277.9z"/>
	<path d="M310,299.3c16.2,0,32.1,0,48.1,0c0,3.5,0,6.8,0,10.3c-15.9,0-32,0-48.1,0C310,306.3,310,302.9,310,299.3z"/>
</g>
</svg>
