<svg version="1.1" id="Camada_1" xmlns="http://www.w3.org/2000/svg" xmlns:xlink="http://www.w3.org/1999/xlink" x="0px" y="0px"
	 viewBox="0 0 512 512" style="enable-background:new 0 0 512 512;" xml:space="preserve">
<g>
	<path d="M73,205.4c1.5-6.4,2.3-12.9,4.6-19c13.5-37.9,40-61.7,78.9-71.8c18.8-4.9,37.5-4.2,56.3,0.5c2.5,0.6,5.6-0.1,8.2-0.7
		c17.4-4.6,34.6-3.8,52,0c2.8,0.6,6.2,0.4,9-0.3c24.3-5.6,47.9-4,70.5,6.9c28.1,13.5,48,34.6,58.1,64.6c2.8,8.3,2,17,1.9,25.6
		c0,4.5,0.8,8.6,2.6,12.7c7.7,17,15.1,33.9,22.6,50.9c0.5,1,1.1,2,1.7,3c0,0.2,0,0.5,0,0.7c-7.5,0-15,0-22.8,0c0,2.4,0,4,0,5.5
		c0.4,9.6,0.7,19.3,1.1,28.9c0.4,10.8-8,19.3-18.8,19.1c-8.3-0.1-16.7-0.1-25.1-0.1c-0.5,0-0.9,0.1-1.9,0.2c0,21.5,0,43.1,0,64.8
		c-3,0-5.6,0-8.4,0c0-24.4,0-48.7,0-73.6c1.3,0,2.7,0,4.2,0c10.1,0,20,0,30.1,0c8.3,0,12.1-3.9,11.7-12.1
		c-0.4-11.6-0.9-23.2-1.4-34.7c-0.1-1.6,0-3.2,0-5.6c6.2,0,12.2,0,18.7,0c-0.7-1.8-1.1-2.9-1.6-4c-6.5-14.9-13.1-29.9-19.6-44.9
		c-0.7-1.7-1.1-3.7-1.2-5.5c-0.3-7.8,0.5-15.8-0.7-23.6c-2.5-15.9-11.4-28.9-22.2-40.4c-17.3-18.4-38.2-30.1-63.5-32.7
		c-8.6-0.9-17.5-0.1-26.2-0.1c-0.1,0.4-0.1,0.8-0.2,1.2c2.6,1.4,5.3,2.8,7.9,4.4c22.1,13,38.3,31.2,47.9,55
		c3.8,9.4,4.3,19.3,3.7,29.2c-0.3,5.8,1,11,3.5,16.1c7.3,16,14.4,32.2,21.5,48.3c0.6,1.3,1.1,2.6,1.9,4.7c-7.7,0-15,0-22.5,0
		c0,2.5-0.1,4.4,0,6.3c0.4,8.3,0.6,16.7,1.3,25c1,12.2-8.5,22.3-20.2,21.5c-8.3-0.6-16.7-0.1-25.1-0.1c-0.2,0-0.4,0.1-1,0.3
		c0,21.4,0,43,0,64.7c-2.9,0-5.5,0-8.4,0c0-24.3,0-48.7,0-73.6c1.1,0,2.4,0,3.7,0c10.3,0,20.5,0,30.8,0c8.2,0,12-4.1,11.7-12.3
		c-0.5-13.1-1.1-26.2-1.7-39.7c6.2-0.3,12.2-0.5,18.7-0.8c-0.6-1.5-1-2.7-1.5-3.9c-6.2-14.2-12.5-28.3-18.6-42.5
		c-1.1-2.7-1.7-5.9-1.8-8.9c-0.5-7.8,0.4-15.9-1.1-23.6c-3.5-17.8-13.9-31.8-26.8-43.9c-20.8-19.5-45.5-29.2-74.1-28.2
		c-4,0.1-7.9,0.8-12.1,1.9c1.1,0.6,2.1,1.2,3.2,1.8c24.1,13.2,41.8,32.1,52.1,57.7c3.7,9,4.3,18.6,3.7,28.1
		c-0.4,6.4,1,12.1,3.7,17.9c7.4,15.8,14.3,32,21.4,47.9c0.5,1.2,1,2.3,1.8,4.4c-7.8,0-15.1,0-22.8,0c0.5,10.8,1.2,20.8,1.4,31
		c0.1,4.1-0.3,8.4-1.8,12.1c-3,7.2-9,10.8-17.1,10.7c-8.9-0.1-17.9,0-27.1,0c0,21.8,0,43.4,0,65.1c-2.9,0-5.5,0-8.4,0
		c0-24.4,0-48.7,0-73.7c1.1,0,2.4,0,3.7,0c10.3,0,20.5,0,30.8,0c8.2,0,12-4,11.7-12.2c-0.5-13.1-1.1-26.2-1.7-40
		c6.3,0,12.3,0,18.9,0c-0.8-2-1.2-3.2-1.7-4.4c-6.4-14.6-12.9-29.2-19.2-43.9c-0.8-1.9-1.2-4.1-1.3-6.2c-0.4-8.3,0.3-16.8-1.1-25
		c-2.2-13.4-9.4-24.7-18.2-34.7c-20.8-24.1-46.8-38.1-79-37.6c-49.3,0.8-86.9,32.2-97.9,75.3c-5.3,20.8-2.9,41.3,3.6,61.6
		c4.5,13.8,12,25.9,19.5,38.1c8.1,13.2,16.2,26.5,20.3,41.6c2.2,8.3,3.7,17.1,4.2,25.6c0.7,12.1,0.2,24.4,0.2,36.5
		c0,0.7-0.1,1.4-0.2,2.2c-2.7,0-5.4,0-8.4,0c0-1.5,0-2.9,0-4.3c0-11.9,0.1-23.9-0.1-35.7c-0.4-18.2-7.3-34.3-16.1-49.8
		c-6.4-11.2-13.1-22.1-19.4-33.4c-7.7-13.8-11.8-28.8-14-44.4c-0.1-0.9-0.4-1.8-0.7-2.7C73,222.1,73,213.7,73,205.4z"/>
	<path d="M153.9,181.1c2.3-5.6,4.2-11.1,7-16.1c2.2-4,5.1-7.9,8.4-11c7.2-6.5,16.7-5.6,23.7,1.7c5.4,5.6,8.5,12.6,11.1,19.8
		c0.6,1.8,1.2,3.6,1.8,5.5c5-0.8,9.7-2.1,14.5-2.2c5.2-0.2,10.6,0,15.5,1.3c9.6,2.5,13.9,10.9,11.4,20.6
		c-1.9,7.5-6.3,13.8-11.2,19.7c-1.5,1.8-3.1,3.6-4.4,4.9c4.4,6.4,9.2,12.2,12.7,18.8c8.6,16.2,0.9,29-17.5,29.2
		c-6.9,0.1-13.9-1.2-20.9-1.9c-2,4.9-4.1,10.2-6.5,15.3c-1.3,2.7-3,5.4-5,7.8c-8.4,10.3-20.9,10.5-28.8-0.2
		c-4.1-5.6-6.6-12.3-9.7-18.6c-0.7-1.4-1.1-3.1-1.6-4.9c-4.4,0.8-8.6,2-13,2.1c-5.5,0.2-11.3,0.2-16.6-1.1
		c-10.7-2.7-15.1-12.2-11.7-22.6c2.3-7,6.7-12.8,11.6-18.4c1.4-1.6,2.8-3.1,3.9-4.3c-4.5-6.5-8.8-12.7-12.9-19.1
		c-1.4-2.2-2.1-5.1-2.8-7.7c-2.1-9,1.9-16.3,10.7-19.6c8.4-3,16.9-2,25.4-0.3C150.6,180.2,152.3,180.6,153.9,181.1z M157.5,226.3
		c0,3.5-0.2,6.9,0.1,10.4c0.2,1.5,1.1,3.5,2.3,4.3c6,3.9,12.2,7.4,18.5,10.9c0.8,0.5,2.3,0.5,3.1,0.1c6.4-3.7,12.8-7.3,19.1-11.2
		c1-0.6,1.9-2.2,1.9-3.4c0.2-7.2,0.2-14.5,0-21.8c0-1.1-1-2.7-1.9-3.4c-4.7-3.1-9.5-5.8-14.2-8.9c-4.1-2.7-7.8-3.4-11.9,0
		c-1.6,1.3-3.8,2-5.6,3C157.3,212.9,157.3,212.9,157.5,226.3z M225.8,219.8c5.6-5.6,10.8-11.5,13.3-19.1c2.3-6.9-0.2-11.5-7.2-13.1
		c-8.2-1.8-16.1,0.2-24.3,1.6c0.9,6.1,1.7,11.9,2.7,17.7c0.1,0.7,0.6,1.6,1.2,2C216.3,212.5,221.1,216.2,225.8,219.8z M151.9,262.6
		c-0.9-6.1-1.6-11.8-2.5-17.4c-0.1-0.7-0.5-1.6-1.1-2.1c-4.6-3.8-9.2-7.5-13.9-11.2c-5.7,5.9-11.1,11.9-13.5,19.7
		c-2,6.5,0.3,10.9,6.8,12.4C135.8,265.8,143.8,264.7,151.9,262.6z M197.7,183.8c-2.4-8.1-5.2-16-11.2-22.2c-4.4-4.6-8.6-4.6-13,0
		c-6,6.3-8.7,14.2-11.1,22.1c5.6,2.2,10.8,4.4,15.9,6.4c0.9,0.3,2.1,0.4,3,0.1C186.7,188.3,192,186.1,197.7,183.8z M151.8,189.3
		c-1.5-0.3-2.5-0.7-3.6-0.7c-6.6-0.3-13.3-1.2-19.8-0.8c-6.5,0.5-9.4,5.1-7.9,11c2.2,8.5,7.7,15,13.7,21.3c4.8-3.9,9.2-7.4,13.7-11
		c0.6-0.5,1.2-1.2,1.3-2C150.2,201.3,151,195.4,151.8,189.3z M208.4,263c2.8,0.6,5.6,1.5,8.2,1.5c5.8,0.1,11.7,0.3,17.3-0.6
		c4.7-0.7,6.6-4.1,5.9-8.7c-1.4-9.5-7.5-16.3-13.7-23.1c-4.8,3.9-9.1,7.3-13.5,10.9c-0.6,0.5-1.3,1.2-1.4,1.9
		C210.1,250.9,209.3,256.9,208.4,263z M162.5,268.5c0.5,1.8,0.9,3.6,1.6,5.2c2.4,6.3,4.9,12.7,10.1,17.5c3.9,3.7,7.7,3.9,11.5,0.4
		c6.8-6.3,9.6-14.6,12.1-23.2c-5.6-2.2-10.8-4.4-15.9-6.4c-0.9-0.3-2.1-0.4-3-0.1C173.4,264.1,168.2,266.3,162.5,268.5z M148.5,219
		c-3,2.6-5.4,4.7-7.9,6.9c2.7,2.3,5.1,4.4,7.9,6.8C148.5,227.9,148.5,224,148.5,219z M200.1,191.9c-3.6,1.2-6.6,2.3-10.4,3.7
		c4.3,2.3,7.8,4.4,12,6.6C201.2,198.6,200.8,195.6,200.1,191.9z M158.4,250.1c0.6,3.8,1.1,6.8,1.7,10.4c3.6-1.2,6.5-2.3,10.2-3.6
		C166.1,254.5,162.6,252.4,158.4,250.1z M158.5,202.2c4.1-2.3,7.6-4.4,11.7-6.7c-3.7-1.2-6.7-2.2-10.2-3.4
		C159.5,195.6,159,198.5,158.5,202.2z M201.3,250c-4.2,2.4-7.7,4.6-11.7,6.9c3.7,1.2,6.6,2.2,9.9,3.4
		C200.1,256.8,200.7,253.9,201.3,250z M219.7,225.8c-2.6-2.2-5-4.3-7.6-6.5c0,4.6,0,8.5,0,13.1C214.9,230.1,217,228.2,219.7,225.8z"
		/>
	<path d="M228.6,353.5c-2.9,0-5.3,0-8,0c0-2.7,0-5.4,0-8.2c2.5,0,5.1,0,8,0C228.6,347.9,228.6,350.6,228.6,353.5z"/>
	<path d="M228.6,364.7c0,2.7,0,5.5,0,8.2c-2.7,0-5.3,0-8.1,0c0-2.7,0-5.4,0-8.2C223.3,364.7,225.8,364.7,228.6,364.7z"/>
</g>
</svg>
