<svg version="1.1" id="Camada_1" xmlns="http://www.w3.org/2000/svg" xmlns:xlink="http://www.w3.org/1999/xlink" x="0px" y="0px"
	 viewBox="0 0 512 512" style="enable-background:new 0 0 512 512;" xml:space="preserve">
<g>
	<path d="M409.9,188.8c3.9,0,7.6,0,11.7,0c-0.2,14.8-4.7,27.9-13.8,39.4c-9.1,11.5-21,18.8-34.5,22.4c-1.1,9.8-1.1,19.4-3.4,28.5
		c-2.5,10.4-6.8,20.5-10.7,30.6c-0.9,2.3-1,3.5,0.8,5.2c3.2,2.9,6.1,6.1,9.7,9.9c3.7-4.1,6.9-7.8,10.4-11.7c3.1,3.4,5.7,6.1,9,9.6
		c-3.6,3.1-7.3,6.3-11.3,9.7c1.4,1.6,2.2,2.5,3.1,3.4c18.5,18.5,37.2,37,55.5,55.6c15.7,16,11.6,41.6-8.1,51.5
		c-12.5,6.3-27,3.9-37.4-6.4c-18.5-18.4-36.9-36.8-55.3-55.3c-0.9-0.9-1.8-1.7-3.2-3c-3.4,3.8-6.7,7.5-10.2,11.4
		c-3.3-3.5-5.9-6.2-9.1-9.6c3.6-3.1,7.4-6.3,11.6-9.9c-4.3-4.2-7.7-7.8-11.4-11c-0.7-0.6-2.8-0.1-3.9,0.5
		c-17.9,9.1-36.8,13.4-56.9,13c-53.9-1.2-101.5-42-110.8-95.1c-0.2-1.2-0.6-2.4-0.9-3.6c-20.7,3.8-35.9,23.3-38.5,49.4
		c-3.7,0-7.5,0-12.2,0c0.7-5,1-10.1,2.3-14.9c6.2-23.3,20.9-38.7,43.9-46c2.4-0.8,3.4-1.5,3.3-4.4c-1.6-55.9,39.9-106.4,95-116.2
		c1.2-0.2,2.4-0.6,3.6-0.9c-3.9-20.7-22.5-35.2-49.7-38.6c0-1.8,0-3.7,0-5.6c0-1.9,0-3.8,0-6.1c9.7-0.1,18.7,1.9,27.1,6
		c17.2,8.3,28.5,21.6,33.9,39.9c0.8,2.6,1.9,3.2,4.5,3.2c55.5-1.6,106.6,40.2,116,94.8c0.2,1.2,0.5,2.5,0.8,3.7
		C389.8,236.6,405.7,216.3,409.9,188.8z M255.7,335.8c44.4,0,80.2-35.7,80.2-80.1c0-43.7-35.8-79.5-79.6-79.6
		c-44.2-0.1-80.1,35.6-80.1,79.7C176.1,299.9,211.9,335.8,255.7,335.8z M341.7,369.8c0.7,0.8,1.4,1.6,2.2,2.4
		c18.4,18.4,36.8,36.8,55.2,55.2c8.6,8.6,20.9,8.8,29,0.6c8.1-8.2,7.7-20.4-0.9-29c-18.3-18.3-36.6-36.7-55-55
		c-0.9-0.9-1.8-1.7-2.5-2.3C360.4,351.2,351.2,360.3,341.7,369.8z M348.2,254.9c0.7,45.3-33.2,85.7-79.7,92.1
		c-20.7,2.8-40.3-0.9-58.3-11.4c-25.4-14.9-40.2-37.4-45.3-66.5c-4.1,0.7-8,1.4-12.3,2.1c6.8,36.3,25.6,63.5,58.6,78.9
		c39.5,18.3,77.4,13.4,111.2-13.9c26.1-21,38-49.3,37.9-83.2C355.9,253.6,352,254.3,348.2,254.9z M253,152.1
		c0.4,2.8,1.1,5.5,1.3,8.2c0.2,2.9,1.3,3.8,4.2,3.8c42.2,1,78.8,31.6,87.2,72.8c0.4,1.9,0.9,3.9,1.4,6c4.2-0.7,8-1.4,11.8-2.1
		C351.7,185.7,300.1,148.6,253,152.1z M152.1,259c3-0.5,5.8-1.1,8.6-1.3c2.8-0.2,3.4-1.5,3.5-4.1c1.1-41.1,29.5-76.5,69.3-86.5
		c3-0.8,6.1-1.4,9.4-2.2c-0.7-4.1-1.4-7.9-2-11.7C188.2,159.4,148.7,209.6,152.1,259z M351.8,323.9c-9.5,9.5-18.7,18.7-27.7,27.6
		c2.6,2.8,5.5,5.9,8.1,8.7c9.4-9.4,18.6-18.6,27.9-27.9C357.4,329.5,354.4,326.5,351.8,323.9z"/>
	<path d="M176.1,121.3c-0.1,30.3-25,55-55.4,54.9c-30.3-0.1-55-25-54.9-55.4c0.1-30.3,25-55,55.4-54.9
		C151.6,66,176.3,90.9,176.1,121.3z M103.6,126.3c-9.3-13.5-9.1-25.8,0.4-35.1c8.7-8.5,22.2-9.2,31.9-1.8c4.6,3.6,7.5,8.2,8.9,13.9
		c2.1,8.8-0.8,16.2-6,22.4c3.2,4,6.7,7.4,8.9,11.4c2.2,4,3.1,8.7,4.6,13c16.4-14.8,15.7-43.9-1.6-60.3
		c-18.3-17.4-47.3-15.4-63.2,4.2c-15.9,19.8-9.7,46,2.7,56.1C93.6,136.3,94.5,134.7,103.6,126.3z M102.5,153.7c0,6.8,0,6.8,6.7,8.7
		c6.9,2,13.8,2.2,20.8,0.7c9.3-1.9,9.9-2.7,9.5-12.2c-0.4-7.9-5.8-14.7-13.3-17C113.7,130.3,101.3,140.4,102.5,153.7z M133.4,108.5
		c-0.1-6.8-5.8-12.3-12.6-12.1c-6.7,0.1-12.1,5.7-12,12.4c0,6.9,5.6,12.4,12.5,12.3C128,121,133.4,115.5,133.4,108.5z"/>
	<path d="M390.9,65.9c30.3,0,55.2,24.8,55.2,55.1c0,30.3-24.7,55.1-55.1,55.2c-30.2,0.1-55.2-24.8-55.2-55.1
		C335.9,90.7,360.6,65.9,390.9,65.9z M373.5,126.5c-9.4-15-9-27,1.2-36c9.1-8,22.3-8.3,31.6-0.7c4.7,3.9,7.6,8.9,8.7,14.9
		c1.4,8.3-1.4,15.2-6.9,21.6c8.4,6,12.5,14.2,13.5,24.2c14.1-12.9,18.7-40.6-0.2-59.9C404.1,73,375,73.9,358.7,92.5
		c-17.5,20-11.4,46.9,1.6,58C361.2,140.4,365.5,132.4,373.5,126.5z M409.5,153.7c0-0.6,0-1.3,0-1.9c-0.1-9.5-7-17.4-16.1-18.5
		c-9.6-1.2-18.4,5-20.4,14.6c-0.6,3.1-0.6,6.4-0.3,9.5c0.1,1.3,1.3,3,2.5,3.5c9.2,3.9,18.6,4.2,28.1,1.4
		C409.5,160.4,409.4,160.4,409.5,153.7z M403.3,108.8c0-6.9-5.5-12.4-12.4-12.4c-6.9,0-12.4,5.5-12.3,12.4c0,6.7,5.5,12.2,12.2,12.3
		C397.6,121.2,403.3,115.6,403.3,108.8z"/>
	<path d="M176.1,391.1c-0.1,30.5-25.1,55.2-55.6,55c-30-0.2-54.7-25.1-54.6-55.2c0.1-30.5,25.1-55.2,55.6-55
		C151.6,336,176.3,361,176.1,391.1z M151.7,420.5c13.1-11.3,19.3-38.5,1.1-58.6c-16.4-18.2-45.4-18.7-62.6-0.9
		c-18.4,19.1-14,46.7,0.2,59.6c0.8-10.3,5.3-18.4,13.3-24.3c-9.6-13.1-9.4-25.9,0.4-35.2c9-8.5,22.6-9.1,32.2-1.3
		c10.9,8.8,11.7,21.4,2.1,36.7C146.5,402.3,150.7,410.4,151.7,420.5z M139.5,424c0-0.8,0-1.5,0-2.3c-0.1-9.7-7.3-17.7-16.5-18.5
		c-9.6-0.9-18.4,5.4-20.2,15c-0.6,3-0.5,6.1-0.2,9.2c0.1,1.3,1.3,3,2.5,3.5c9.3,3.9,18.8,4.3,28.5,1.3
		C139.5,430.3,139.5,430.3,139.5,424z M133.4,378.6c-0.1-6.9-5.7-12.3-12.6-12.2c-6.9,0.1-12.2,5.7-12.1,12.7
		c0.1,6.7,5.7,12.1,12.4,12C127.9,391,133.5,385.4,133.4,378.6z"/>
	<path d="M323.2,219.6c0,22.2,0,44.4,0,66.8c-44.8,0-89.4,0-134.4,0c0-14.1,0-28,0-42.3c12,0,23.9,0,36.3,0c0,10,0,20,0,30.2
		c4.3,0,8.2,0,12.4,0c0-26.4,0-52.7,0-79.2c12.2,0,24.2,0,36.6,0c0,26.2,0,52.6,0,79.2c4.3,0,8.2,0,12.4,0c0-18.1,0-36.2,0-54.6
		C298.9,219.6,311,219.6,323.2,219.6z M250,206.9c0,22.7,0,45,0,67.3c4.2,0,8,0,11.9,0c0-22.6,0-44.8,0-67.3
		C257.9,206.9,254.1,206.9,250,206.9z M311,274.3c0-14.6,0-28.7,0-42.7c-4.2,0-8.1,0-11.9,0c0,14.4,0,28.5,0,42.7
		C303.3,274.3,307.1,274.3,311,274.3z M213,256.2c-4.3,0-8.2,0-12,0c0,6.2,0,12.1,0,18c4.2,0,8,0,12,0
		C213,268.1,213,262.2,213,256.2z"/>
</g>
</svg>
