<svg version="1.1" id="Camada_1" xmlns="http://www.w3.org/2000/svg" xmlns:xlink="http://www.w3.org/1999/xlink" x="0px" y="0px"
	 viewBox="0 0 512 512" style="enable-background:new 0 0 512 512;" xml:space="preserve">
<g>
	<path d="M153.9,337.6c0.1,17.1,0.1,34.3-0.1,51.4c0,4.7-4,7.9-8.9,7.9c-4.8,0-9-3.2-9.1-7.8l-0.1-84.3c0-54.9,0-109.7,0-164.6
		c0-7.9,1.7-9.8,10-11.8c23.4-5.6,46.8-11.5,70.4-16.9c35.2-8.3,70.4-16.4,105.5-24.6c4.6-1,9.2-2.3,13.8-3.3
		c5.5-1.2,9.9,1,11.3,5.6c1.5,4.5-1,9.3-6.5,10.7c-14.9,3.8-29.7,7.3-44.7,10.8c-15.8,3.7-31.6,7.4-47.4,11
		c-27.1,6.3-54.3,12.7-81.3,19c-3.6,0.8-7.3,1.5-10.7,2.9c-1.2,0.5-2.4,2.6-2.5,4c-0.2,8.9-0.1,17.7-0.1,26.7
		c0,40.3,0.5,80.7-0.4,121L153.9,337.6z"/>
	<path d="M320.1,220.2c0-2-1.4-3.1-3.3-2.6c-21.6,6.8-39,31.4-39.1,55c0,2,1.4,3.1,3.3,2.6c1.8-0.5,3.3-2.6,3.3-4.5
		c0-19.6,14.5-40.1,32.6-45.8C318.6,224.2,320.1,222.1,320.1,220.2z"/>
	<path d="M286.4,282.8c-0.6-1.7-2.6-2-4.2-0.7c-1.7,1.2-2.5,3.6-1.9,5.2c0.5,1.1,1,2.3,1.7,3.4c0.8,1.4,2.8,1.5,4.3,0.2
		c1.7-1.4,2.3-3.7,1.4-5.3C287.3,284.7,286.8,283.7,286.4,282.8z"/>
	<path d="M376.3,132.9c0.1-15.9-6.3-16.8-19.9-13.4c-15.6,3.9-31.3,7.2-46.8,10.7c-24.5,5.5-48.9,10.8-73.4,16.2
		c-16.5,3.6-33,7.4-49.6,10.8c-10.6,2.2-12.6,4.2-12.6,14.2V409c0,3.9-0.2,7.9,0.2,11.9c0.5,5.8,5,8.7,11.1,7.6
		c4-0.7,7.9-1.7,11.9-2.5c15.8-3.6,31.6-7.2,47.4-10.8c24-5.4,48.2-10.6,72.3-16c15.7-3.5,31.3-7.3,46.9-10.6
		c10.7-2.3,12.3-3.7,12.3-13.7C376.1,294.2,375.9,213.6,376.3,132.9z M223.4,348.7c-6.9-5.3-10.8-14.2-10.8-24.9
		c0-10.6,3.9-22,10.8-31.7c5.9-8,13.6-13.9,21.8-16.5c10.7-3.4,19.5-16.8,19.5-29.8c0-0.3,0-0.6,0-0.9c0-0.1,0-0.1,0-0.2
		c0-0.1,0-0.2-0.1-0.3c-0.6-12.2-9.1-19.3-19.5-16c-8.2,2.5-15.9,1.4-21.8-2.8c-6.9-5.3-10.8-14.2-10.8-24.9c0-3.9,2.9-8,6.5-9.2
		c3.6-1.1,6.5,1.1,6.5,5.1c0,13.1,8.8,20.9,19.5,17.5c8.2-2.5,15.9-1.4,21.8,2.8c5.6,4.2,9.2,10.8,10.3,18.9
		c-7.9,12.7-12.4,26.9-12.5,40.3c-5.6,6.7-12.4,11.6-19.6,13.8c-10.7,3.4-19.5,16.8-19.5,29.8c0,0.3,0,0.6,0,0.9c0,0.1,0,0.1,0,0.2
		s0,0.2,0.1,0.3c0.6,12.2,9.1,19.3,19.5,16c8.2-2.5,15.9-1.4,21.8,2.8c6.9,5.3,10.8,14.2,10.8,24.9c0,3.9-2.9,8-6.5,9.2
		c-3.6,1.1-6.5-1.1-6.5-5.1c0-13.1-8.8-20.9-19.5-17.5C237,354.1,229.3,353,223.4,348.7z M233.3,360.3c-5,6.3-7.7,14-7.6,21.2
		c0,3.9-2.9,8-6.5,9.2c-3.6,1.1-6.5-1.1-6.5-5.1c0-9.5,3.1-19.7,8.8-28.7C224.9,358.8,229,360,233.3,360.3z M241.9,255.4l16.1-5.1
		c-0.4,7.7-5.9,15.5-12.8,18.3c-7.2,2.3-13-3.3-13-12.5c0-9.2,5.9-18.4,13-20.6c6.1-1.5,11.2,1.8,12.4,7.9l-15.7,5
		c-1.8,0.5-3.3,2.6-3.3,4.5C238.7,254.9,240.1,256.1,241.9,255.4z M225.7,258.2c0,7.1,2.8,13.1,7.6,16.3c-4.3,3-8.4,6.6-11.9,10.8
		c-11.8-11.1-11.8-33.2,0-51.8l0,0c3.5,2,7.5,3.1,11.9,3.4C228.5,243.4,225.7,251,225.7,258.2z M257,205.5c5-6.3,7.7-14,7.6-21.2
		c0-3.9,2.9-8,6.5-9.2c3.6-1.1,6.5,1.1,6.5,5.1c0,9.5-3.1,19.7-8.8,28.7C265.4,206.9,261.4,205.7,257,205.5z M248.5,310.2l-16.1,5.1
		c0.4-7.7,5.9-15.5,12.8-18.3c7.2-2.3,13,3.3,13,12.5s-5.9,18.4-13,20.6c-6.1,1.5-11.2-1.8-12.4-7.9l15.7-5c1.8-0.5,3.3-2.6,3.3-4.5
		C251.7,310.8,250.2,309.7,248.5,310.2z M257,328.7c4.8-6.3,7.6-14,7.6-21.2c0-7.1-2.8-13.1-7.6-16.3c2.9-2,5.6-4.2,8.2-6.8
		c1.3,10.3,5.6,19.1,12,25.4c-1,7.6-3.9,15.4-8.3,22.4C265.4,330,261.4,328.9,257,328.7z M271.2,274.6c0-27.4,20.4-56.2,45.6-64.1
		c17.3-5.5,32.4,0.4,40.1,13.5c0,14,0,28.2,0,42.4v4.8c-7.7,18.1-22.8,33.3-40.1,38.8C291.6,318,271.3,302.1,271.2,274.6z
		 M357,283.7l0.1,13l-5.9-4.5C353.3,289.4,355.3,286.6,357,283.7z M351.2,373.9c-15.6,3-31,6.9-46.4,10.3
		c-24.5,5.5-48.9,10.7-73.3,16.2c-11.3,2.5-22.7,5.2-33.9,7.8c-1.3,0.3-2.7,0.6-4.5,1c-0.2-1.5-0.5-2.8-0.5-4l-0.2-225.1
		c0-5.4,2.1-7,7.1-8c21.3-4.4,42.4-9.2,63.6-13.9c30.6-6.8,61.3-13.6,91.8-20.4c0.5-0.1,1,0,2.2,0c0,24.6,0,49.1,0,73.7
		c-2-2-4-3.6-6.4-5.1c-19.6-12-48.4-2.7-67.8,21.8c-1.7-6.4-4.7-11.8-9.1-15.8c6.8-10.6,10.6-22.8,10.6-34.2c0-7.8-5.9-12.4-13-10.1
		c-7.2,2.3-13,10.4-13,18.4c0,9.2-5.9,18.5-13,20.7c-6.5,1.7-11.9-2.2-12.7-9.1l16-5.1c1.8-0.5,3.3-2.6,3.3-4.5c0-2-1.4-3.1-3.3-2.5
		l-16.7,5.3c-1.7-6.4-7.7-9-14.2-6.1c-6.5,3-11.3,10.5-11.3,17.6c0,11.3,3.8,21.2,10.6,27.4c-14.1,22.1-14.1,48.4,0,61.6
		c-14.1,22.1-14.1,48.4,0,61.6c-6.8,10.6-10.6,22.8-10.6,34.2c0,7.8,5.9,12.4,13,10.1c7.2-2.3,13-10.4,13-18.4
		c0-9.2,5.9-18.5,13-20.7c6.5-1.7,11.9,2.2,12.7,9.1l-16,5.1c-1.8,0.5-3.3,2.6-3.3,4.5c0,2,1.4,3.1,3.3,2.6l16.7-5.3
		c1.7,6.4,7.7,9,14.2,6.1c6.5-3,11.3-10.5,11.3-17.6c0-11.3-3.7-21-10.6-27.4c4.3-6.7,7.4-14.1,9.1-21.6
		c17.7,11.3,43.7,4.8,63.2-15.8l11,8.6l0.3,60.1C357.4,371.3,356.3,372.9,351.2,373.9z"/>
</g>
</svg>
