<svg version="1.1" id="Camada_1" xmlns="http://www.w3.org/2000/svg" xmlns:xlink="http://www.w3.org/1999/xlink" x="0px" y="0px"
	 viewBox="0 0 512 512" style="enable-background:new 0 0 512 512;" xml:space="preserve">
<g>
	<g>
		<path d="M310.4,103.7c0,4.8,0,9.6,0,14.9c-5.1,0-9.8,0-14.7,0c0,54.9,0,109.3,0,164.2c4.7,0,9.4,0,14.4,0c0,5.2,0,9.9,0,15
			c-39.6,0-79,0-118.8,0c0,25,0,49.6,0,74.8c1.6,0,3.2,0,4.9,0c15.1,0,30.2,0,45.3,0c6.7,0,9.2,2.6,9.2,9.4c0,9.1,0,18.3,0,27.7
			c-5,0-9.6,0-14.7,0c0-7.1,0-14.3,0-21.8c-15.2,0-29.8,0-44.9,0c0,7.2,0,14.3,0,21.7c-5,0-9.8,0-15,0c0-7.1,0-14.3,0-21.8
			c-15.1,0-29.6,0-44.7,0c0,7.1,0,14.3,0,21.9c-5.2,0-9.9,0-15.1,0c0-10.2-0.2-20.2,0.1-30.3c0.1-4.3,3.5-6.7,8.5-6.7
			c15.1,0,30.2,0,45.3,0c1.7,0,3.4,0,5.5,0c0-24.8,0-49.4,0-74.7c-39.6,0-79.4,0-119.1,0c0-5,0-10,0-14.9c4.9,0,9.8,0,14.6,0
			c0-55.1,0-109.5,0-164.3c-5.1,0-9.9,0-14.6,0c0-5,0-9.9,0-14.9C141.1,103.7,225.8,103.7,310.4,103.7z M86.6,282.6
			c64.8,0,129.3,0,193.6,0c0-54.8,0-109.3,0-163.7c-64.7,0-129,0-193.6,0C86.6,173.5,86.6,227.9,86.6,282.6z"/>
		<path d="M227.9,193.2c-7.4,29.5-36.1,44-59.8,34.6c-20.4-8.1-39-34.1-23.8-63.3c-4.9-4.8-10-9.9-15.2-14.7c-1-0.9-2.8-1.1-4.2-1.1
			c-7.6-0.1-15.2-0.1-23.2-0.1c0-4.9,0-9.6,0-14.8c10.3,0,20.6-0.2,31,0.2c2,0.1,4,2.1,5.7,3.7c5.2,4.9,10.2,9.9,15.5,15.1
			c13.1-10.7,27.7-15.1,44.2-8.8c15.8,6,25.4,17.8,29.7,34.4c12.3,0,24.7,0,37.5,0c0,5,0,9.7,0,14.9
			C252.8,193.2,240.3,193.2,227.9,193.2z M168.3,211.4c7.5,5.8,23.5,5.8,33-1c9.8-7,14.2-19.8,11.1-32.8
			c-2.6-10.7-11.1-18.9-21.4-20.4c0,7.5-0.4,14.9,0.1,22.3c0.5,6.9-1.7,11.8-6.8,16.3C178.6,200.7,173.6,206.2,168.3,211.4z
			 M176,157.2c-18.9,3.3-29,27.6-18.1,43.9c5.7-5.8,11.4-11.5,17-17.3c0.6-0.6,1.1-1.6,1.1-2.4C176,173.3,176,165.3,176,157.2z"/>
		<path d="M101.5,267.7c0-4.9,0-9.5,0-14.4c24.7,0,49.2,0,74.1,0c0,4.6,0,9.3,0,14.4C151.1,267.7,126.5,267.7,101.5,267.7z"/>
		<path d="M265.2,238c-12.3,0-24.4,0-36.7,0c0-4.9,0-9.6,0-14.5c12.2,0,24.3,0,36.7,0C265.2,228.1,265.2,232.8,265.2,238z"/>
		<path d="M101.6,223.3c12.4,0,24.3,0,36.7,0c0,4.8,0,9.5,0,14.5c-12,0-24.2,0-36.7,0C101.6,233.1,101.6,228.4,101.6,223.3z"/>
		<path d="M205.5,267.9c-4.9,0-9.4,0-14.2,0c0-4.8,0-9.5,0-14.5c4.6,0,9.3,0,14.2,0C205.5,258.3,205.5,263.1,205.5,267.9z"/>
		<path d="M220.9,267.7c0-4.9,0-9.4,0-14.3c4.8,0,9.5,0,14.5,0c0,4.6,0,9.3,0,14.3C230.7,267.7,226,267.7,220.9,267.7z"/>
		<path d="M265.4,253.3c0,4.9,0,9.5,0,14.4c-4.8,0-9.5,0-14.5,0c0-4.8,0-9.5,0-14.4C255.7,253.3,260.3,253.3,265.4,253.3z"/>
	</g>
	<g>
		<path d="M442.2,368c0,23,0,18.3,0,41.5h13.3c0-23,0-18.3,0-41.5C451,368,446.8,368,442.2,368z"/>
		<path d="M439.9,320.9c-12.5,0-25,0-37.6,0c0-1.6,0-3.2,0-4.8c0-26.1,0-52.2,0-78.3c0-7.5-1.9-9.4-9.6-9.4c-12,0-24,0-36,0
			c-13-0.1-20.7-7.7-20.7-20.6c0-10.6,0-21.2,0-32.2c4.4,0,8.6,0,13.3,0c0,7.7,0.5,15.4-0.1,23.1c-0.8,9.6,7.5,16.8,16.3,16.6
			c21-0.6,42-0.1,63-0.2c3,0,5,1,7.3,2.9c1.8,1.5,3.2,3.1,4.2,4.8v-35.8c-0.8-0.9-1.7-1.7-3-2.5c-4.6-2.7-7.5-7.2-7.8-12.6
			c-0.4-9.3-0.1-18.7-0.1-28.8c3.5,2.3,7.2,3.6,10.9,4.5v-13.7c-0.2,0-0.3-0.1-0.5-0.1c-8.8-2.2-13.9-8.7-16.4-18
			c5.8,0,11.4-0.6,16.9,0.2v-13.6c-8.9,0-17.9,0-26.8,0c-3.8,2.5-5,6.2-3.9,10.4c1.3,5,3.2,9.9,4.8,14.9c0.6,2,1.5,4.1,1.6,6.2
			c0.2,11.3,0.1,22.7,0.1,34c0,9.5,3.4,17.7,10.1,24.1c3,2.9,3.7,5.8,2.9,9.6c-21.9,0-43.8,0-66.1,0c0-22.1,0-44,0-65.8
			c-4.6,0-8.8,0-13.3,0c0,8.9,0,17.4,0,26.2c-6.2,0-12.1,0-18.1,0c-5.9,0-8.3,2.4-8.3,8.2c0,12.4,0,24.9,0,37.3
			c0.1,18.7,15.3,34,34,34c9.3,0,18.5,0,27.8,0c1.5,0,2.9,0,4.6,0c0,2.5,0,4.4,0,6.4c0,25.6,0,51.1,0,76.7c0,8.1,1.7,9.8,10,9.8
			c3.2,0,6.5,0,9.9,0c0,2.3,0,4,0,5.6c0,32.4,0,37,0,69.4h13.6c0-34.1,0-40.4,0-74.7c5.8,0,11.6,0,17.4,0V320.9z"/>
	</g>
</g>
</svg>
