<?xml version="1.0" encoding="utf-8"?>
<!-- Generator: Adobe Illustrator 22.0.1, SVG Export Plug-In . SVG Version: 6.00 Build 0)  -->
<svg version="1.1" id="Camada_1" xmlns="http://www.w3.org/2000/svg" xmlns:xlink="http://www.w3.org/1999/xlink" x="0px" y="0px"
	 viewBox="0 0 512 512" style="enable-background:new 0 0 512 512;" xml:space="preserve">
<g>
	<path d="M443.3,159.3c3.1,0.3,6.1,0.1,9.1-0.3c10.4-1.9,17.6-10.2,17.6-20.8c0.1-14.5,0.1-29,0-43.6c0-5.5-2.1-10.7-6-14.7
		c-4.4-4.5-9.9-6.3-16.1-6.3c-14.6,0-29.2,0-43.8,0H296.7c-0.8,0.2-1.6-0.2-2.1-0.8c-7.2-8.6-14.5-17.2-21.7-25.9
		c-3.8-4.5-8.5-7.6-14.5-8.2c-7.5-0.8-13.7,2-18.6,7.7c-7.3,8.6-14.6,17.2-21.8,25.8c-0.6,0.9-1.7,1.4-2.7,1.3
		c-49.9,0-99.7,0-149.6,0c-1.6,0-3.3,0.1-4.9,0.3C52.1,74.7,45,80.7,42.8,89c-0.3,1.3-0.6,2.6-0.9,4v46.8c0.5,2.2,0.8,4.4,1.7,6.6
		c3.3,7.3,9,11.5,17,12.6c2.9,0.4,5.8,0.2,8.7,0.3c0.9,0,1.3,0.3,1.2,1.2c0,0.3,0,0.5,0,0.8c0,65.3,0,130.7,0,196
		c0,2.2,0.3,1.9-1.9,1.9c-3.8,0-7.5-0.2-11.2,0.9c-8.4,2.4-14.4,9.5-15.3,18c0,0.3-0.1,0.6-0.3,0.8v4c0.3,1.1,0.4,2.3,0.8,3.4
		c2.5,9.6,10.7,15.9,21,15.9c19.8,0,39.5,0,59.2,0H247c2.1,0,1.9-0.3,1.9,1.9c0,8.8,0,17.6,0,26.4c0,1.2-0.3,1.8-1.4,2.3
		c-14.2,5.9-16.9,24.1-6.8,34.3c5.5,5.6,12.3,7.4,19.9,6c10.2-2,17.5-11.3,16.7-21.7c-0.5-8.7-5.1-14.9-13-18.6
		c-0.8-0.3-1.2-1-1.1-1.8c0.1-9.1,0.1-18.2,0-27.4c0-1.2,0.3-1.5,1.4-1.4c0.3,0,0.7,0,1,0h182.4c3.8,0.1,7.5-0.8,10.8-2.5
		c7.8-4.1,12.2-12.6,11.1-21.4c-1.1-9.3-7-16-15.8-18.2c-3.4-0.9-6.9-0.7-10.4-0.7c-2.2,0-2.2,0-2.2-2.1v-85.8
		c0-36.7,0-73.5,0-110.1C441.5,159.6,441.9,159.3,443.3,159.3z M243.7,63.7c1.9-2.2,3.8-4.4,5.6-6.6c1.4-1.8,3.2-3.3,5.6-3.8
		c2.3-0.6,4.7,0.2,6.1,2c4.9,6.1,9.8,12.2,14.8,18.5h-40.6L243.7,63.7z M265.3,452c0,4.9-4.5,9.4-9.4,9.4s-9.4-4.5-9.4-9.5
		c0-5.2,4.3-9.4,9.4-9.4C261.2,442.6,265.4,446.8,265.3,452z M448.3,373.2c3,0,5.5,0.9,6.9,3.8c2.3,4.8-0.1,11-6.7,11
		c-64.2,0-128.5,0-192.7,0H63.4c-3.2,0-5.7-1.2-6.9-4.2c-1.9-4.8,0.4-10.4,6.6-10.6H448.3L448.3,373.2z M84.5,357.6
		c0-65.6,0-131.1,0-196.7c0-1.4,0.3-1.9,1.9-1.9c113.1,0,226.2,0,339.4,0c1.4,0,1.9,0.3,1.9,1.9c0,65.6,0,131.1,0,196.7
		c0,1.4-0.3,1.9-1.9,1.9c-56.5,0-113.1,0-169.6,0s-113.1,0-169.6,0C84.8,359.5,84.5,359.1,84.5,357.6L84.5,357.6z M63.3,145.3
		c-4.7,0-7.4-2.7-7.4-7.4c0-14.2,0-28.6,0-42.8c0-4.7,2.6-7.3,7.4-7.3h385.1c4.9,0,7.5,2.6,7.5,7.5c0,14.2,0,28.5,0,42.7
		c0,4.7-2.7,7.3-7.4,7.3H63.3L63.3,145.3z"/>
	<path d="M184.6,330.4c38.9,0,71.1-32.1,71.2-71s-32.2-71-70.8-71.3c-39.2-0.3-71.7,32.3-71.5,71.1
		C113.5,298.2,145.7,330.4,184.6,330.4z M242.5,267.8c-1.2,7.2-3.1,14.1-6.6,20.5c-1.1,2-2.3,3.8-3.7,5.7c-1,1.4-1.4,1.4-2.6,0.3
		c-8.9-8.9-17.6-17.6-26.4-26.4c-0.3-0.3-1-0.6-0.8-1.2c0.3-0.5,0.9-0.3,1.3-0.3c6.2,0,12.4,0,18.7,0c6.2,0,12.4,0,18.7,0
		C242.4,266.1,242.7,266.5,242.5,267.8z M191.6,203c0-1.7,0.1-1.8,1.8-1.5c8.9,1.2,17.4,4.5,24.8,9.6c13.3,9.2,22.2,23.5,24.5,39.6
		c0.3,1.7,0.2,1.8-1.4,1.8h-24c-8,0-16.1,0-24.1,0c-1.1,0-1.4-0.3-1.4-1.4C191.6,235,191.6,219,191.6,203L191.6,203z M126.1,263.4
		c-1.1-15.3,3.9-30.5,14-42.1c4.7-5.4,10.2-9.8,16.5-13.2c6.1-3.3,12.9-5.5,19.8-6.6c1-0.2,1.4,0.1,1.4,1.3c-0.1,9.2,0,18.3,0,27.5
		c0,8.8,0.1,17.5,0,26.3c0,3,1.2,5.9,3.3,7.9c13,13.1,26,26.1,39,39c1.4,1.4,1.4,1.4-0.3,2.6c-7.3,5.5-15.9,9.3-24.9,10.9
		c-15.2,2.7-30.8-0.7-43.5-9.4c-10.1-6.8-17.8-16.7-22-28.2C127.6,274.4,126.5,269,126.1,263.4L126.1,263.4z"/>
	<path d="M285,301.9h84.7c0.3,0,0.7,0,1,0c2.8-0.3,4.9-1.6,6-4.3c1-2.6,0.5-5.5-1.4-7.4c-1.4-1.6-3.4-2-5.5-2h-42.5
		c-14.3,0-28.6,0-43,0c-3.8,0-6.7,3-6.7,6.7c0,0.7,0.1,1.4,0.3,2.1C278.8,300.2,281.2,301.9,285,301.9z"/>
	<path d="M284.5,244.7c3.3,0,6.6,0,10,0h39.8c2.3,0,4.3-0.7,5.7-2.6c1.8-2.3,2-5.5,0.4-8c-1.4-2.5-3.7-3.2-6.3-3.2
		c-8.2,0-16.3,0-24.4,0h-25.1c-1.7-0.1-3.4,0.5-4.7,1.7c-2.1,2-2.8,5.1-1.8,7.8C279.1,243.1,281.7,244.8,284.5,244.7z"/>
	<path d="M362.6,244.7c12.1,0.1,24.2,0.1,36.4,0c2,0.1,3.9-0.9,5.1-2.6c1.8-2.3,2-5.5,0.4-8c-1.4-2.5-3.7-3.2-6.3-3.2h-17.4l0,0
		c-6.1,0-12.1-0.1-18.2,0c-3.8,0-6.6,3-6.6,6.8C356,241.6,358.9,244.7,362.6,244.7z"/>
	<path d="M284.6,273.3c4.7,0,9.4,0,14.1,0c4.9,0,9.7,0,14.6,0c3.7,0,6.7-2.9,6.7-6.6c0-0.1,0-0.2,0-0.3c0-4-2.8-6.9-6.6-6.9
		c-9.6,0-19.2,0-28.8,0c-1.7,0-3.3,0.5-4.5,1.6c-2.1,2-2.8,5-1.9,7.8C279,271.7,281.7,273.5,284.6,273.3z"/>
	<path d="M435.2,102.6c-3.6-0.3-6.6,1.7-7.4,5.1c-0.7,2.9-0.1,5.9-0.3,8.1c0,3.3-0.1,5.9,0,8.4c0.2,3.6,3.2,6.5,6.7,6.4
		c3.8,0,6.9-2.6,7-6.3c0.1-5.1,0.1-10.2,0-15.4C441.1,105.5,438.5,102.9,435.2,102.6z"/>
	<path d="M399.6,102.6c-3.5-0.5-6.7,1.8-7.4,5.2c-0.6,2.9-0.1,5.9-0.3,8.1c0,3.2-0.1,5.8,0,8.3c0.1,3.7,3.2,6.6,6.8,6.5
		c3.8,0,6.8-2.7,6.9-6.4c0.1-5.1,0.1-10.1,0-15.3C405.5,105.6,402.9,102.9,399.6,102.6z"/>
	<path d="M363.8,102.6c-3.6-0.3-6.6,1.7-7.4,5.1c-0.7,2.9-0.1,5.9-0.3,8.2c0,3.1,0,5.5,0,8c0,0.1,0,0.2,0,0.3
		c0.1,3.7,3.2,6.6,6.9,6.5c3.8,0,6.8-2.7,6.9-6.5c0.1-5.1,0.1-10.1,0-15.3C369.7,105.5,367.2,102.9,363.8,102.6z"/>
	<path d="M328,102.6c-3.7-0.3-6.6,1.7-7.3,5.2c-0.6,2.9-0.1,5.9-0.3,8.1c0,3.2-0.1,5.7,0,8.3c0.1,3.7,3.2,6.6,6.8,6.5
		c3.8,0,6.8-2.6,6.9-6.4c0.1-5.1,0.1-10.2,0-15.4C334.1,105.5,331.4,102.8,328,102.6z"/>
	<path d="M292.5,102.6c-3.5-0.5-6.7,1.8-7.4,5.2c-0.6,2.8-0.1,5.8-0.3,8c0,3.1,0,5.5,0,8c0,0.1,0,0.2,0,0.3c0.1,3.7,3.2,6.6,6.8,6.5
		c3.8,0,6.8-2.7,6.9-6.4c0.1-5.1,0.1-10.1,0-15.3C298.5,105.5,295.8,102.8,292.5,102.6z"/>
	<path d="M262.9,117.4c0-3.2,0.1-5.8,0-8.4c-0.1-3.7-3.2-6.6-6.8-6.4c0,0,0,0-0.1,0c-3.8,0-6.8,2.7-6.8,6.4
		c-0.1,5.1-0.1,10.1,0,15.3c0.1,3.4,2.8,6.1,6.2,6.4c3.6,0.3,6.6-1.8,7.2-5.1C263.2,122.6,262.6,119.6,262.9,117.4z"/>
	<path d="M227.2,117.3c0-3.2,0.1-5.7,0-8.2c-0.1-3.6-3-6.5-6.6-6.6c-3.9-0.1-7,2.6-7.1,6.3c-0.1,5.1-0.1,10.2,0,15.4
		c0.3,3.8,3.6,6.6,7.3,6.3c3-0.2,5.5-2.3,6.1-5.2C227.6,122.6,227,119.6,227.2,117.3z"/>
	<path d="M191.6,117.3c0-3.2,0.1-5.7,0-8.3c-0.1-3.7-3.2-6.6-6.8-6.5c-3.8,0-6.8,2.6-6.9,6.4c-0.1,5.1-0.1,10.1,0,15.3
		c0.1,3.4,2.8,6.1,6.2,6.4c3.7,0.3,6.6-1.8,7.3-5.2C191.9,122.5,191.3,119.5,191.6,117.3z"/>
	<path d="M155.8,117.3c0-3.2,0.1-5.7,0-8.2c-0.1-3.6-3-6.5-6.6-6.6c-3.9-0.1-7,2.6-7.1,6.3c-0.1,5.1-0.1,10.2,0,15.4
		c0.3,3.8,3.6,6.6,7.3,6.3c3-0.3,5.5-2.3,6.1-5.1C156.2,122.6,155.7,119.6,155.8,117.3z"/>
	<path d="M114.1,102.6c-3.7-0.3-6.6,1.7-7.4,5.2c-0.6,2.8-0.1,5.8-0.3,7.9c0,3.3-0.1,5.9,0,8.4c0.1,3.7,3.2,6.6,6.8,6.5
		c3.8,0,6.8-2.7,6.9-6.4c0.1-5.1,0.1-10.1,0-15.3C120,105.5,117.4,102.8,114.1,102.6z"/>
	<path d="M84.5,117.3c0-3.1,0-5.5,0-8c0-0.1,0-0.2,0-0.3c-0.1-3.7-3.2-6.6-6.8-6.5c-3.8,0-6.8,2.6-6.9,6.4c-0.1,5.1-0.1,10.1,0,15.3
		c0.1,3.4,2.8,6.1,6.2,6.4c3.7,0.3,6.6-1.8,7.3-5.2C84.8,122.5,84.3,119.6,84.5,117.3z"/>
</g>
</svg>
