<?xml version="1.0" encoding="utf-8"?>
<svg version="1.1" id="Camada_1" xmlns="http://www.w3.org/2000/svg" xmlns:xlink="http://www.w3.org/1999/xlink" x="0px" y="0px"
	 viewBox="0 0 512 512" style="enable-background:new 0 0 512 512;" xml:space="preserve">
<g>
	<path d="M242.4,344.2c-1.7,5.1-3.4,9.9-5,14.7c-1.4,4.1-2.7,8.2-4.1,12.2c-2,5.9-4.8,7.3-10.7,5.3
		c-28.6-9.6-57.3-19.2-85.9-28.8c-2.3-0.8-4.5-1.7-6.8-2.3c-5.3-1.4-7.9-5-5.5-11.3c2.8-7.4,5.1-15.1,7.7-22.6
		c0.3-0.8,0.4-1.7,0.7-2.7c-1-0.4-1.9-0.8-2.8-1.1c-13.8-4.5-27.6-9.1-41.5-13.5c-2-0.6-4.2-1-6.3-1c-6.6-0.1-13.2,0.1-19.7-0.1
		c-1.9-0.1-4-0.7-5.6-1.7c-2-1.3-2.4-3.7-2.4-6.1c0-10.2,0-20.5,0-30.7c0-9,0-18,0-27c0-6.1,2.3-8.4,8.5-8.5c6.3,0,12.7,0.1,19-0.1
		c2.2,0,4.6-0.3,6.7-1c84.2-27.4,168.5-54.8,252.7-82.2c35.2-11.5,70.4-22.9,105.6-34.4c1.3-0.4,2.7-0.8,4-0.9
		c3.4-0.2,6.1,2.1,6.6,5.5c0.2,1.1,0.1,2.3,0.1,3.4c0,97.8,0,195.6,0,293.4c0,0.9,0,1.8,0,2.7c-0.4,4.4-3.9,7.1-8.2,6
		c-2.6-0.6-5.1-1.6-7.6-2.4c-65.2-21.2-130.5-42.5-195.7-63.7C245,344.9,243.9,344.6,242.4,344.2z M444.4,115.8
		C326.9,154.1,209.9,192.2,93,230.2c0,17.3,0,34.2,0,51.1c5.1,2.5,348.7,114,351.5,114.1C444.4,302.4,444.4,209.5,444.4,115.8z
		 M138.2,334.3c28.3,9.5,56.2,18.8,84.3,28.3c2.6-7.7,5-15,7.5-22.5c-28.4-9.2-56.3-18.3-84.5-27.5
		C143,319.9,140.6,326.9,138.2,334.3z M67.8,232.3c0,15.9,0,31.5,0,47.3c4,0.3,7.9,0.4,11.6,0c0.8-5.3,0.6-44.5-0.3-47.3
		C75.5,232.3,71.9,232.3,67.8,232.3z"/>
</g>
</svg>
