<?xml version="1.0" encoding="utf-8"?>
<svg version="1.1" id="Camada_1" xmlns="http://www.w3.org/2000/svg" xmlns:xlink="http://www.w3.org/1999/xlink" x="0px" y="0px"
	 viewBox="0 0 512 512" style="enable-background:new 0 0 512 512;" xml:space="preserve">
<path d="M0,325.8c0-25.1,0-50.1,0-75.2c0.3-1.6,0.6-3.3,0.8-4.9c1.6-13.8,2-27.8,5-41.3c5-22.3,11.5-44.2,17.8-66.2
	c4.5-15.6,18.2-25.5,34.5-25.5c140.7,0,281.3,0,422,0c17,0,29.5,12.1,29.6,29c0.2,60.2,0.2,120.3,0,180.5c0,14.1-9,25.7-22.5,28.3
	c-6.7,1.3-13.9,0.5-20.8,0.6c-6.4,0.1-12.7,0-19,0c-1.7-33.7-27.7-55-55-55.5c-13.4-0.3-25.5,3.6-36,12
	c-13.9,11-20.8,25.6-21.7,43.2H169.5c-2.4-36.9-31.5-55.5-56.5-55.3c-13.2,0.1-25.1,4.1-35.3,12.6c-13.3,11.1-20.2,25.4-20.9,42.9
	c-10.1,0-19.8,0.1-29.6,0c-8.8-0.1-16.1-3.7-20.9-10.9C3.4,335.8,2,330.6,0,325.8z M369.3,129.3c-0.8-0.1-1.2-0.3-1.6-0.3
	c-34.7,0-69.3,0-104-0.1c-3.8,0-3.5,2.1-3.5,4.5c0,31.3,0.1,62.7-0.1,94c0,4.1,1.4,4.8,5,4.7c33.3-0.1,66.5-0.1,99.8-0.1
	c1.4,0,2.7-0.1,4.3-0.2L369.3,129.3L369.3,129.3z M134.6,231.9c1.1,0.1,1.8,0.2,2.5,0.2c34.4,0,68.7,0,103.1,0.1
	c3.4,0,3.8-1.4,3.8-4.2c-0.1-31.5-0.1-62.9,0-94.4c0-3.8-1.1-4.6-4.7-4.6c-33.5,0.1-67.1,0.1-100.6,0.1c-1.3,0-2.7,0.2-4.1,0.3
	L134.6,231.9L134.6,231.9z M386.3,129c-0.1,1.5-0.2,2.2-0.2,2.9c0,32.1,0,64.3-0.1,96.4c0,3.4,1.3,3.8,4.2,3.8
	c26.3-0.1,52.6,0,78.9-0.1c14.4,0,23.7-9.2,23.7-23.7c0.1-18.5,0.2-37-0.1-55.5c-0.1-3.9-0.9-8.1-2.5-11.6
	c-4.2-8.9-11.9-12.2-21.5-12.2c-26,0.1-52.1,0-78.1,0L386.3,129L386.3,129z M51.4,231.8h66.1V129.3c-1.2-0.1-2.2-0.2-3.1-0.2
	c-17,0-34-0.1-51,0c-12.3,0.1-23.5,7.4-26.4,18c-5.6,21-11,42-15.9,63.2c-2.5,10.8,3.9,19.4,12.5,20.6c0.4-0.8,0.9-1.6,1.3-2.5
	c3.7-8.8,7.4-17.6,11-26.4c2-4.7,5.5-6.9,9.6-6c5.9,1.2,8.2,6.2,5.6,12.5C58,216.1,54.8,223.7,51.4,231.8z"/>
<path d="M344.1,351.4c0.2-26,21.2-46.9,47-46.9c26.2,0,47,21.1,46.9,47.3c-0.2,25.9-20.6,46.7-47.1,46.6
	C363.8,398.2,344.4,377.3,344.1,351.4z M391,330.8c-11.3,0-20.7,9.3-20.8,20.6c-0.1,11.3,9.6,21.1,20.9,21
	c11.1,0,20.7-9.6,20.8-20.7C412.1,340.3,402.5,330.8,391,330.8L391,330.8z"/>
<path d="M112.9,304.6c27.2,0.5,47.2,20.7,47,47.1c-0.2,27.1-20.3,46.6-46.9,46.7c-26.6,0.1-46.9-20.5-47.1-47
	C65.9,325.6,87.1,304.6,112.9,304.6z M133.7,351.8c0-11.8-9.1-21-20.7-21c-11.4,0-20.7,9.2-20.7,20.7c-0.1,11.3,9.3,20.8,20.6,21
	C124,372.5,133.7,363,133.7,351.8L133.7,351.8z"/>
</svg>
